<?xml version="1.0" encoding="UTF-8"?><svg xmlns="http://www.w3.org/2000/svg" viewBox="0 0 611.74 415.66"><defs><style>.cls-1{fill-rule:evenodd;}.cls-1,.cls-2{fill:#00a651;}</style></defs><path class="cls-2" d="M34.75,271.7c-4.04,0-7.31,3.27-7.31,7.31s3.27,7.31,7.31,7.31h480.21c4.04,0,7.31-3.27,7.31-7.31s-3.27-7.31-7.31-7.31H34.75Z"/><g><path class="cls-2" d="M47.99,301.43c-5.55,0-10.42,1.82-14.47,5.42-4.17,3.69-6.29,8.28-6.29,13.61v3.56c0,5.23,2.12,9.78,6.31,13.53,2.14,1.92,4.53,3.31,7.11,4.22h-13.41v6.75c0,5.31,2.11,9.89,6.28,13.62,4.05,3.63,8.92,5.46,14.48,5.46h21.5c5.61,0,10.49-1.81,14.51-5.39,4.14-3.7,6.24-8.3,6.24-13.69v-3.53c0-5.32-2.1-9.84-6.25-13.44-2.25-1.95-4.81-3.3-7.62-4.16h13.86v-7.02c0-5.41-2.09-9.99-6.2-13.63-3.96-3.53-8.86-5.33-14.56-5.33h-21.5Zm-9.63,30.73c-2.63-2.35-3.9-5.01-3.9-8.14v-3.56c0-3.22,1.26-5.91,3.86-8.21,2.72-2.42,5.89-3.6,9.67-3.6h21.5c3.92,0,7.11,1.15,9.76,3.5,2.48,2.2,3.7,4.83,3.75,8.02h-3.44c-.05-1.67-.62-4.05-3-6.37-1.96-1.9-4.35-2.91-6.92-2.91h-21.79c-2.64,0-5.05,.98-6.97,2.85-1.95,1.91-2.97,4.23-2.97,6.72v3.52c0,2.52,1.02,4.85,2.95,6.72,1.89,1.86,4.29,2.85,6.94,2.85h21.6c3.96,0,7.18,1.13,9.86,3.46,2.53,2.19,3.76,4.8,3.76,7.98v3.53c0,3.28-1.25,5.99-3.82,8.29-2.69,2.39-5.87,3.56-9.71,3.56h-21.5c-3.77,0-6.93-1.19-9.66-3.62-2.47-2.21-3.7-4.76-3.82-7.75h3.43c.2,5.72,3.85,9.13,9.9,9.13h21.79c2.64,0,5.04-.98,6.96-2.83,1.95-1.88,2.98-4.2,2.98-6.71v-3.52c0-1.68-.52-4.18-2.98-6.52-1.93-1.81-4.31-2.75-6.91-2.75h-21.6c-3.8,0-6.98-1.19-9.72-3.65Zm7.54-6.61c-.68-.67-.78-1.16-.78-1.56v-3.52c0-.38,.09-.87,.79-1.55,.57-.55,1.15-.8,1.93-.8h21.79c.49,0,1.1,.1,1.88,.86,.83,.81,.83,1.29,.83,1.44v6.14c-.97-.11-1.93-.23-2.95-.23h-21.6c-.76,0-1.33-.24-1.89-.79Zm-.78,22.97v-5.74c.97,.12,1.94,.25,2.95,.25h21.6c.78,0,1.38,.24,1.95,.78,.71,.68,.71,1.09,.71,1.26v3.52c0,.38-.09,.85-.77,1.51-.58,.56-1.16,.8-1.95,.8h-21.79c-2.6,0-2.71-.73-2.71-2.38Z"/><path class="cls-2" d="M116.96,301.43c-5.63,0-10.51,1.82-14.49,5.41-4.09,3.69-6.16,8.25-6.16,13.54v4.98h8.38c-1.23,.71-2.41,1.54-3.51,2.51-4.14,3.68-6.23,8.24-6.23,13.55v7.08c0,5.32,2.11,9.9,6.28,13.62,4.07,3.63,8.96,5.47,14.52,5.47h22.83c1.15,0,2.27-.18,3.39-.44v.44h17.9v-47.21c0-5.4-2.09-9.98-6.2-13.64-3.98-3.53-8.89-5.32-14.58-5.32h-22.13Zm-9.65,10.78c2.65-2.39,5.8-3.55,9.65-3.55h22.13c3.92,0,7.12,1.15,9.78,3.5,2.53,2.25,3.77,4.95,3.77,8.23v39.99h-3.45v-5.53l-5.65,3.86c-1.66,1.13-3.28,1.68-4.96,1.68h-22.83c-3.79,0-6.96-1.19-9.71-3.64-2.6-2.32-3.87-5.01-3.87-8.22v-7.08c0-3.2,1.25-5.87,3.81-8.15,2.71-2.41,5.9-3.58,9.77-3.58h23.04c1.76,0,3.37,.45,4.94,1.39l5.47,3.26v-13.91c0-2.5-1.05-4.83-3.03-6.72-1.96-1.85-4.35-2.82-6.95-2.82h-22.22c-2.67,0-5.03,.88-7.05,2.63-1.5,1.29-2.48,2.87-2.94,4.61h-3.24c.46-2.24,1.63-4.19,3.55-5.93Zm6.59,9.54v-1.33c0-.37,.06-.81,.76-1.42,.7-.6,1.41-.87,2.32-.87h22.22c.76,0,1.35,.25,1.97,.83,.78,.75,.78,1.26,.78,1.48v2.37c-1.04-.2-2.1-.34-3.18-.34h-23.04c-.63,0-1.22,.11-1.84,.15v-.88Z"/><path class="cls-2" d="M115.52,331.95c-6.21,0-9.93,3.58-9.93,9.57v7.04c0,5.99,3.71,9.57,9.93,9.57h23.21c2.65,0,5.05-.98,7.16-2.92,2.73-2.5,3.3-5.15,3.3-6.93v-6.22c0-2.54-1.08-4.89-3.21-6.99-2.14-2.08-4.57-3.13-7.24-3.13h-23.21Zm-2.7,16.61v-7.04c0-1.62,.11-2.34,2.7-2.34h23.21c.47,0,1.2,.11,2.19,1.07,.68,.67,1.04,1.29,1.04,1.82v6.22c0,.18,0,.73-.96,1.6-.98,.9-1.73,1.01-2.27,1.01h-23.21c-2.59,0-2.7-.72-2.7-2.34Z"/><path class="cls-2" d="M182.47,280.02h-14.28v87.58h17.89v-42.52c0-1.66,.71-3.21,2.18-4.72,1.46-1.53,3.04-2.23,4.97-2.23h15.07c2.01,0,3.55,.57,4.83,1.79,1.23,1.17,1.81,2.47,1.81,4.08v43.6h17.9v-43.68c0-6.4-2.46-11.83-7.33-16.16-4.75-4.21-10.58-6.34-17.33-6.34h-14.99c-2.54,0-4.91,.4-7.11,1.19v-22.6h-3.61Zm-3.61,7.23v29.44l5.96-5.09c2.32-1.98,5.06-2.94,8.38-2.94h14.99c5,0,9.1,1.48,12.54,4.52,3.29,2.93,4.9,6.45,4.9,10.75v36.45h-3.44v-36.37c0-3.63-1.37-6.77-4.06-9.33-2.64-2.5-5.94-3.77-9.81-3.77h-15.07c-3.93,0-7.35,1.49-10.17,4.44-2.79,2.87-4.21,6.16-4.21,9.74v35.29h-3.44v-73.13h3.44Z"/><path class="cls-2" d="M261.55,301.43c-5.64,0-10.51,1.82-14.49,5.42-4.09,3.69-6.16,8.25-6.16,13.54v4.98h8.38c-1.23,.72-2.41,1.54-3.51,2.51-4.14,3.68-6.25,8.24-6.25,13.55v7.08c0,5.32,2.12,9.9,6.3,13.62,4.06,3.63,8.94,5.47,14.51,5.47h22.83c1.15,0,2.27-.18,3.39-.44v.44h17.89v-47.21c0-5.4-2.08-9.99-6.19-13.64-3.97-3.53-8.87-5.32-14.57-5.32h-22.13Zm-9.64,10.78c2.64-2.39,5.79-3.55,9.64-3.55h22.13c3.93,0,7.13,1.14,9.77,3.5,2.53,2.25,3.76,4.94,3.76,8.23v39.99h-3.43v-5.53l-5.65,3.85c-1.66,1.13-3.28,1.68-4.97,1.68h-22.83c-3.79,0-6.96-1.19-9.7-3.64-2.62-2.33-3.88-5.02-3.88-8.23v-7.08c0-3.2,1.25-5.87,3.82-8.15,2.71-2.41,5.9-3.58,9.76-3.58h23.04c1.76,0,3.38,.45,4.95,1.39l5.46,3.26v-13.91c0-2.51-1.05-4.83-3.04-6.73-1.94-1.84-4.34-2.82-6.94-2.82h-22.22c-2.66,0-5.03,.88-7.04,2.62-1.5,1.3-2.47,2.87-2.94,4.61h-3.24c.46-2.24,1.63-4.19,3.55-5.93Zm6.59,9.54v-1.33c0-.37,.06-.82,.76-1.42,.69-.6,1.41-.86,2.32-.86h22.22c.76,0,1.36,.25,1.96,.83,.8,.76,.8,1.27,.8,1.49v2.37c-1.04-.2-2.1-.34-3.18-.34h-23.04c-.63,0-1.22,.11-1.83,.15v-.88Z"/><path class="cls-2" d="M260.11,331.95c-6.21,0-9.92,3.58-9.92,9.57v7.04c0,5.99,3.71,9.57,9.92,9.57h23.22c2.6,0,5.08-1.01,7.15-2.92,2.73-2.52,3.3-5.16,3.3-6.93v-6.22c0-2.53-1.08-4.87-3.21-6.98-2.11-2.06-4.61-3.14-7.24-3.14h-23.22Zm-2.7,16.61v-7.04c0-1.62,.11-2.34,2.7-2.34h23.22c.46,0,1.19,.11,2.18,1.07,.69,.68,1.05,1.3,1.05,1.82v6.22c0,.18,0,.71-.97,1.61-.98,.9-1.75,1.01-2.25,1.01h-23.22c-2.59,0-2.7-.72-2.7-2.34Z"/><path class="cls-2" d="M339.6,301.43c-2.37,0-4.62,.35-6.75,1.02v-1.02h-18.44v87.23h18.44v-22.04c2.11,.65,4.36,.99,6.75,.99h15.11c6.79,0,12.63-2.14,17.35-6.35,4.83-4.32,7.29-9.79,7.29-16.27v-21.06c0-6.4-2.47-11.84-7.34-16.16-4.76-4.21-10.58-6.34-17.3-6.34h-15.11Zm-8.31,9.72c2.44-1.68,5.16-2.49,8.31-2.49h15.11c4.97,0,9.06,1.48,12.5,4.52,3.3,2.92,4.91,6.44,4.91,10.75v21.06c0,4.39-1.59,7.95-4.87,10.88-3.41,3.04-7.51,4.52-12.54,4.52h-15.11c-3.23,0-5.94-.8-8.27-2.46l-5.7-4.04v27.56h-3.98v-72.77h3.98v6.39l5.66-3.9Z"/><path class="cls-2" d="M339.63,310.91c-3.83,0-7.25,1.39-9.91,4.03-2.71,2.67-4.1,5.87-4.1,9.48v20.61c0,3.61,1.45,6.85,4.2,9.37,2.66,2.47,5.97,3.73,9.81,3.73h15.16c3.98,0,7.3-1.22,9.87-3.62,2.62-2.42,4.02-5.7,4.02-9.49v-21.02c0-3.67-1.41-6.93-4.07-9.42-2.62-2.44-5.92-3.68-9.82-3.68h-15.16Zm-4.9,38.19c-1.28-1.18-1.87-2.47-1.87-4.06v-20.61c0-1.65,.62-3.03,1.95-4.34,1.32-1.31,2.89-1.94,4.83-1.94h15.16c2.04,0,3.64,.57,4.89,1.74,1.21,1.13,1.78,2.45,1.78,4.14v21.02c0,1.79-.54,3.12-1.71,4.19-1.22,1.14-2.84,1.69-4.95,1.69h-15.16c-1.98,0-3.59-.59-4.9-1.81Z"/><path class="cls-2" d="M406.15,301.43c-5.63,0-10.51,1.82-14.5,5.41-4.09,3.69-6.16,8.24-6.16,13.55v4.98h8.38c-1.23,.72-2.41,1.54-3.51,2.52-4.15,3.68-6.26,8.24-6.26,13.55v7.08c0,5.32,2.12,9.9,6.32,13.62,4.03,3.62,8.91,5.47,14.5,5.47h22.82c1.15,0,2.28-.18,3.4-.44v.44h17.89v-47.21c0-5.4-2.08-9.99-6.18-13.63-3.98-3.53-8.89-5.33-14.57-5.33h-22.13Zm-9.66,10.78c2.66-2.39,5.82-3.55,9.66-3.55h22.13c3.92,0,7.12,1.15,9.77,3.5,2.53,2.24,3.75,4.94,3.75,8.23v39.99h-3.43v-5.52l-5.65,3.84c-1.66,1.13-3.29,1.68-4.98,1.68h-22.82c-3.8,0-6.96-1.19-9.68-3.63-2.63-2.34-3.91-5.03-3.91-8.23v-7.08c0-3.2,1.25-5.86,3.83-8.15,2.71-2.41,5.9-3.58,9.76-3.58h23.04c1.76,0,3.38,.45,4.95,1.39l5.46,3.25v-13.9c0-2.5-1.05-4.83-3.03-6.72-1.95-1.85-4.35-2.82-6.95-2.82h-22.21c-2.67,0-5.04,.88-7.05,2.63-1.5,1.29-2.48,2.86-2.94,4.61h-3.24c.46-2.24,1.62-4.2,3.54-5.93Zm6.59,9.54v-1.33c0-.37,.06-.81,.77-1.42,.7-.61,1.41-.87,2.32-.87h22.21c.76,0,1.37,.26,1.97,.83,.79,.75,.79,1.26,.79,1.48v2.37c-1.04-.2-2.1-.34-3.18-.34h-23.04c-.63,0-1.23,.11-1.84,.15v-.88Z"/><path class="cls-2" d="M404.71,331.95c-6.22,0-9.93,3.58-9.93,9.57v7.04c0,5.99,3.71,9.57,9.93,9.57h23.2c2.62,0,5.1-1.01,7.16-2.92,2.73-2.48,3.3-5.14,3.3-6.92v-6.22c0-2.55-1.09-4.9-3.24-6.99-2.08-2.04-4.59-3.12-7.23-3.12h-23.2Zm-2.7,16.61v-7.04c0-1.58,.11-2.34,2.7-2.34h23.2c.47,0,1.2,.11,2.18,1.06,.71,.69,1.06,1.3,1.06,1.82v6.22c0,.18,0,.72-.97,1.6-.99,.92-1.77,1.02-2.27,1.02h-23.2c-2.59,0-2.7-.76-2.7-2.34Z"/><path class="cls-2" d="M481.65,301.43c-2.24,0-4.37,.32-6.39,.95v-.95h-17.89v66.17h17.89v-43.19c0-1.77,.58-3.19,1.81-4.47,1.2-1.23,2.67-1.81,4.61-1.81h15.8c2.01,0,3.55,.57,4.83,1.79,1.24,1.17,1.81,2.47,1.81,4.09v43.6h17.9v-43.68c0-6.38-2.46-11.82-7.31-16.15-4.77-4.22-10.61-6.35-17.35-6.35h-15.72Zm-7.9,9.68c2.31-1.65,4.89-2.46,7.9-2.46h15.72c5,0,9.1,1.48,12.55,4.52,3.28,2.93,4.88,6.45,4.88,10.75v36.45h-3.45v-36.37c0-3.63-1.37-6.77-4.06-9.33-2.64-2.5-5.94-3.77-9.81-3.77h-15.8c-3.91,0-7.21,1.35-9.8,4.01-2.56,2.65-3.85,5.84-3.85,9.5v35.96h-3.43v-51.72h3.43v6.54l5.72-4.09Z"/></g><g><path class="cls-2" d="M165.46,201.86c0,17.51-7.08,30.86-21.23,40.01-12.18,7.66-27.91,11.48-47.16,11.48s-35.63-4.51-48.39-13.55c-14.28-10.19-21.41-24.61-21.41-43.27H62.05c0,9.93,3.6,17.5,10.79,22.69,6.26,4.62,14.78,6.93,25.57,6.93,8.23,0,15.13-1.33,20.7-4,7.65-3.47,11.47-8.86,11.47-16.16,0-6.14-3.02-10.94-9.06-14.41-3.72-2.2-17.01-6.32-39.88-12.34-11.72-3.02-20.08-5.74-25.07-8.18-6.27-2.89-11.33-6.54-15.15-10.94-6.05-6.71-9.06-15.52-9.06-26.41,0-15.29,6.49-27.45,19.48-36.49,11.59-7.87,25.67-11.82,42.26-11.82,18.67,0,33.86,3.83,45.57,11.49,13.57,8.83,20.35,22.11,20.35,39.86h-35.35c0-8.38-3.02-14.51-9.06-18.36-6.03-3.85-13.81-5.77-23.32-5.77-6.62,0-12.45,1.39-17.5,4.17-5.04,2.79-7.57,7.49-7.57,14.09,0,5.57,2.96,9.8,8.9,12.7,5,2.44,18.61,6.32,40.83,11.65,12.79,3.01,22.32,6.49,28.6,10.44,13.26,8.35,19.89,20.42,19.89,36.19Z"/><path class="cls-2" d="M341.73,187.83c-1.74,19.7-9.13,35.55-22.16,47.53-13.03,12-29.75,17.98-50.13,17.98-24.8,0-44.66-8.05-59.61-24.17-14.36-15.41-21.54-35.16-21.54-59.29s7.06-44.62,21.2-60.15c14.83-16.22,34.81-24.35,59.95-24.35,19.11,0,35.07,5.12,47.88,15.32,12.8,10.21,20.46,24.31,23.01,42.29h-34.98c-1.04-8.55-5.16-15.44-12.35-20.72-6.74-5.03-14.62-7.55-23.66-7.55-14.98,0-26.52,5.57-34.64,16.72-6.85,9.29-10.28,22.07-10.28,38.32s3.37,27.87,10.09,37.26c7.78,11.04,19.38,16.55,34.82,16.55,16.23,0,27.42-6.88,33.58-20.64,1.85-4.17,3.13-9.21,3.83-15.11h34.98Z"/><path class="cls-1" d="M506.87,46.19h-110.31l-.53,.04-.41,.02-.72,.06s-.33,.08-.42,.1c-.08,0-.5,.06-.5,.06l-.69,.21-.51,.16-.93,.36-.67,.31-.49,.31-.34,.21-.47,.31-.39,.31-.51,.43-.38,.38-.25,.24-.54,.56s-.24,.35-.3,.44c-.07,.08-.26,.32-.26,.32l-.34,.54-.29,.49-.27,.56-.17,.39-.26,.62-.16,.6-.12,.48-.13,.58-.08,.52-.08,.59-.04,.67v55.53l.04,.66,.16,1.13,.13,.55,.12,.47,.15,.6,.25,.61,.23,.52,.51,.97,.34,.49s.16,.22,.22,.3c.05,.08,.4,.6,.4,.6,0,0,.44,.42,.51,.48,.07,.07,.21,.22,.21,.22l.44,.44,.47,.37,.35,.3,.54,.36s.25,.15,.34,.2c.08,.05,.54,.35,.54,.35,0,0,.49,.19,.59,.23,.11,.05,.35,.17,.35,.17l.64,.25,.54,.15,.51,.14,.57,.11,.45,.07,.59,.09,.66,.05h37.53v125.68h33.3V123.43h40.47l.6-.05,.53-.07,.56-.09,.61-.12,.48-.14,.53-.14,.64-.26,.44-.21,.44-.2,.51-.31,.34-.21,.54-.35,.44-.36,.41-.33,.53-.52s.2-.24,.27-.32c.07-.07,.31-.33,.31-.33l.42-.57,.25-.38,.28-.42,.33-.62,.23-.51,.35-.88,.22-.68,.12-.55,.1-.46,.08-.51,.09-.6,.05-.68V57.05l-.05-.69-.08-.57-.08-.52-.11-.48-.11-.56-.24-.7-.18-.45-.12-.3-.27-.67-.62-1.01-.28-.39-.33-.44-.32-.37-.35-.39-.44-.43-.46-.39-.47-.36-.41-.27-.41-.26-.45-.26-.55-.29-.55-.22-.44-.18-.55-.17-.61-.2s-.47-.05-.56-.06c-.1-.02-.45-.1-.45-.1l-.69-.06-.47-.03-.52-.03h-.12Zm-.12,7.15c.13,0,.33,.02,.33,.02l.41,.02s.05,0,.08,0c.08,.02,.36,.08,.36,.08l.21,.02s.16,.05,.28,.09c.09,.04,.19,.08,.19,.08,0,0,.11,.04,.21,.08,.04,.02,.06,.03,.08,.04,.05,.03,.14,.08,.21,.12,.08,.05,.32,.2,.39,.25,.05,.04,.07,.05,.11,.09,.05,.04,.07,.06,.13,.11,.04,.04,.05,.05,.09,.08,.06,.07,.14,.16,.14,.16,0,0,.06,.07,.11,.13,.07,.09,.21,.28,.25,.35,.06,.1,.16,.25,.16,.26,.01,.03,.16,.39,.16,.39,0,0,.08,.2,.12,.31,0,.01,0,.02,.01,.03,.01,.07,.03,.15,.03,.15,0,0,.06,.26,.08,.38,.02,.1,.05,.29,.05,.29,0,0,.02,.11,.03,.22,0,.07,0,.1,.01,.17v30.66s-118.6,0-118.56,0v-30.67c0-.07,0-.11,.01-.19,.02-.12,.04-.3,.04-.3,0,0,.01-.1,.03-.19,.03-.12,.06-.25,.06-.25,0,0,.09-.38,.1-.39,.03-.07,.13-.31,.16-.39,.02-.04,.04-.09,.08-.17,.04-.06,.05-.09,.07-.12,.02-.03,.04-.06,.08-.12,.05-.07,.19-.24,.19-.24,0,0,.11-.15,.12-.17,.08-.07,.2-.19,.2-.19,0,0,.11-.11,.21-.21,.09-.07,.18-.15,.18-.15,0,0,.04-.03,.09-.07,.06-.04,.08-.05,.12-.08,.08-.05,.26-.15,.26-.15,0,0,.08-.05,.15-.1,.03-.01,.03-.02,.06-.03,.1-.04,.4-.16,.51-.2,.11-.03,.27-.08,.27-.08,0,0,.27-.03,.27-.03,0,0,.29-.07,.35-.08,.03,0,.05,0,.07,0,.1,0,.34-.02,.34-.02,0,0,.22-.02,.35-.02h109.95Z"/><path class="cls-1" d="M534.67,28.72h-169.51v113.07h15.21v125.76h141.91v-105.99s.06,0,.09,0c.2,0,.64,.03,.64,.03,0,0,.55,.02,.71,.02,.14,.01,.46,.04,.55,.05,.08,0,.32,.04,.45,.06,.15,.03,.51,.1,.51,.1,0,0,.19,.04,.34,.07,.13,.04,.22,.07,.29,.09,.08,.03,.22,.08,.33,.11,.04,.02,.06,.02,.11,.05,.04,.02,.04,.02,.08,.05,.07,.05,.11,.08,.15,.11,.03,.02,.06,.05,.12,.1,.02,.02,.02,.02,.04,.04,.03,.03,.03,.03,.05,.07,.04,.07,.06,.1,.09,.15,.04,.07,.07,.12,.12,.22,.04,.08,.05,.11,.09,.19,.03,.08,.04,.13,.08,.21,.03,.12,.06,.23,.09,.31,.02,.1,.06,.28,.09,.39,.02,.14,.09,.52,.09,.52,0,0,.12,.89,.15,1.07,.01,.19,.03,.59,.03,.59,0,0,.06,1.31,.07,1.46v68.99l.06,1.62,.14,1.59,.2,1.6,.29,1.6,.39,1.62,.48,1.48,.52,1.49,.61,1.47,.68,1.43,.76,1.41,.81,1.34,.87,1.31,.96,1.28,.99,1.21,1.06,1.19,1.14,1.12,1.18,1.06,1.23,1.02,1.27,.93,1.31,.9,1.35,.83,1.43,.79,1.4,.66,1.54,.68,1.53,.57,1.51,.48,1.58,.46,1.68,.38,1.67,.29,1.61,.17,1.76,.14,1.67,.02,1.75-.02,1.65-.13,1.7-.19,1.68-.29,1.66-.38,1.55-.44,1.51-.49,1.58-.57,1.45-.67,1.45-.68,1.43-.8,1.36-.85,1.28-.88,1.26-.97,1.24-1.01,1.11-1.03,1.19-1.17,1.06-1.21,.98-1.23,.92-1.26,.87-1.31,.82-1.37,.73-1.38,.7-1.48,.6-1.5,.53-1.53,.43-1.51,.39-1.58,.31-1.64,.2-1.65,.14-1.64,.04-1.95s-28.59-164.69-28.7-165.3v-.11l-.11-.69-.09-.76-.28-1.19-.19-.62-.2-.61-.29-.84s-.31-.62-.36-.72c-.05-.1-.35-.77-.35-.77l-.52-.82-.5-.76-.63-.83-.72-.83-.78-.75-.81-.71-.94-.73-1.02-.66-1.11-.66-1.29-.62-1.26-.47-1.39-.48-1.51-.39-1.6-.32-1.66-.25-1.81-.16-1.85-.09h-2.02s-3.66,.15-4.63,.19V28.72h-3.61Zm-3.61,7.21v98.06h-15.68v11.99l6.31,.21s2.26,.14,2.45,.15c.17,.02,2.11,.25,2.29,.27,.17,.03,1.88,.32,2.07,.36,.19,.04,1.65,.39,1.86,.44,.2,.06,1.56,.49,1.72,.54,.16,.06,1.33,.5,1.56,.59,.21,.1,1.14,.55,1.35,.65,.2,.12,1.03,.61,1.22,.72,.17,.12,.95,.67,1.13,.79,.16,.14,.8,.66,.98,.82,.17,.17,.74,.74,.88,.88,.12,.15,.59,.69,.76,.89,.16,.23,.61,.89,.69,1.01,.07,.12,.49,.81,.63,1.03,.11,.23,.44,.92,.52,1.07,.07,.16,.43,1.06,.49,1.2,.05,.14,.34,.97,.42,1.19,.06,.23,.34,1.31,.34,1.31,0,0,.26,1.05,.32,1.28,.04,.24,.23,1.38,.23,1.38,0,0,.17,1.22,.19,1.35,.01,.13,.14,1.48,.14,1.48l.1,1.48,.06,1.43s.04,1.38,.05,1.48v3.07l-.03,3.07-.02,3.03-.16,57.41,.04,.84,.07,.74,.11,.88,.16,.82,.19,.77,.24,.84,.3,.77,.3,.8,.74,1.38,.42,.73,.53,.76,.52,.66,.98,1.13,.58,.56,.59,.56,.69,.57,.6,.44,.69,.52,.82,.45,.61,.35,.71,.34,.81,.37,.85,.31,.76,.23,.79,.24,.92,.19,.81,.13,.87,.11,.83,.06,.94,.04,.91-.04,.83-.06,.88-.11,.81-.14,.87-.19,.79-.24,.75-.23,.85-.31,.75-.34,.71-.34,.74-.4,.76-.46,1.28-.94,.68-.58,.55-.53,.59-.56,.53-.62,.45-.51,.56-.72,.48-.75,.4-.68,.37-.7,.29-.61,.4-.88,.49-1.57,.17-.76,.16-.82,.11-.84,.08-.82,.04-1.15-29.16-166.39h-4.83v-7.85h.11c.14,0,1.39,.06,1.53,.07,.13,.01,1.25,.11,1.43,.13,.18,.03,1.15,.18,1.28,.2,.13,.03,1.07,.21,1.24,.25,.15,.04,.84,.22,1.04,.27,.21,.07,1.04,.36,1.04,.36,0,0,.66,.25,.88,.33,.17,.08,.54,.26,.72,.34,.18,.11,.61,.36,.7,.42,.09,.06,.46,.3,.63,.41,.15,.11,.42,.33,.53,.41,.11,.1,.46,.4,.54,.47,.07,.07,.31,.29,.44,.42,.11,.13,.26,.3,.35,.4,.08,.11,.23,.3,.32,.42,.1,.15,.34,.52,.34,.52,0,0,.13,.2,.24,.37,.08,.18,.2,.43,.2,.43,0,0,.12,.24,.2,.39,.06,.17,.29,.85,.29,.85,0,0,.05,.17,.09,.29,.03,.14,.09,.39,.13,.58,.02,.19,.06,.49,.06,.49,0,0,.02,.12,.04,.24v.18s28.56,164.53,28.68,165.22c0,.37-.02,.89-.02,1.03-.01,.18-.1,1.18-.11,1.29-.01,.11-.13,1.1-.15,1.29-.03,.18-.2,1.06-.23,1.21-.04,.16-.28,1.13-.31,1.25-.03,.11-.3,1.05-.34,1.19-.05,.14-.35,1.03-.4,1.17-.06,.14-.39,.97-.45,1.12-.07,.15-.49,1.02-.54,1.14-.06,.12-.49,.93-.56,1.07-.08,.14-.58,.96-.64,1.07-.07,.11-.61,.92-.69,1.04-.08,.12-.64,.88-.72,.99-.09,.11-.7,.87-.78,.97-.08,.1-.65,.75-.78,.89-.15,.15-.93,.92-.93,.92,0,0-.73,.68-.87,.81-.14,.11-.89,.73-.97,.79-.08,.06-.89,.68-1.02,.78-.13,.09-.9,.62-1,.69-.11,.07-.97,.61-1.09,.68-.12,.07-.87,.49-1.05,.59-.2,.09-1.19,.56-1.19,.56,0,0-.94,.43-1.16,.53-.22,.08-1.09,.39-1.18,.43-.1,.03-1.17,.38-1.27,.41-.1,.03-1.1,.31-1.25,.36-.15,.04-1.12,.26-1.28,.3-.16,.03-1.09,.19-1.26,.21-.19,.02-1.38,.15-1.38,.15,0,0-1.11,.09-1.31,.1-.2,0-1.42,.02-1.42,.02,0,0-1.14-.02-1.34-.02-.2-.01-1.42-.11-1.42-.11,0,0-1.09-.12-1.28-.14-.17-.03-1.11-.19-1.26-.22-.15-.04-1.13-.26-1.29-.3-.17-.05-1.3-.37-1.3-.37,0,0-1.09-.34-1.24-.39-.13-.05-.99-.37-1.15-.43-.17-.07-1.27-.56-1.27-.56,0,0-.94-.44-1.11-.53-.16-.09-.97-.54-1.09-.6-.12-.07-.93-.57-1.06-.65-.12-.08-.96-.66-1.05-.72-.09-.06-.87-.64-1-.74-.13-.1-.88-.73-.97-.8-.08-.08-.84-.75-.95-.85-.1-.1-.72-.71-.85-.83-.12-.14-.73-.82-.81-.91-.08-.1-.72-.88-.8-.98-.07-.1-.64-.85-.74-.99-.1-.15-.61-.91-.67-1.01-.06-.1-.56-.92-.64-1.06-.07-.13-.51-.95-.58-1.08-.06-.14-.46-.97-.52-1.1-.05-.13-.4-.97-.46-1.12-.06-.17-.42-1.22-.42-1.22,0,0-.3-.94-.37-1.15-.05-.19-.24-1-.28-1.16-.03-.17-.19-1.05-.22-1.2-.02-.16-.15-1.16-.16-1.27-.01-.12-.1-1.13-.11-1.28,0-.15-.05-1.18-.05-1.3v-69.01l-.07-1.66-.05-.91-.11-.83-.09-.66-.13-.8-.17-.75-.21-.75-.26-.73-.32-.71-.36-.64-.4-.64-.53-.67-.61-.63-.58-.47-.56-.41-.81-.48-.76-.32-.67-.24-.77-.24-.73-.15-.79-.15-.81-.1-.89-.08-.87-.02-.89-.04s-.82,.03-.94,.04h-.91l-5.46,.31v105.65h-127.49v-125.76h-15.21V35.94h158.69Zm9.97,41.13h2.38c1.01,5.74,27.86,158.97,27.99,159.69,0,.08,0,.11,0,.16-.01,.14-.04,.37-.04,.46-.01,.09-.05,.38-.07,.51-.03,.14-.1,.52-.1,.52,0,0-.05,.22-.08,.37-.05,.16-.22,.71-.28,.9-.08,.18-.18,.39-.18,.39,0,0-.16,.33-.2,.42-.04,.07-.17,.33-.23,.44-.06,.1-.21,.35-.25,.42-.04,.05-.13,.2-.21,.34-.09,.12-.17,.22-.23,.29-.08,.1-.35,.41-.35,.41,0,0-.18,.22-.31,.36-.14,.13-.34,.32-.34,.32,0,0-.29,.28-.4,.39-.09,.08-.2,.17-.3,.25-.14,.1-.69,.5-.83,.61-.12,.07-.24,.14-.33,.2-.11,.06-.33,.18-.42,.22-.11,.05-.51,.25-.51,.25,0,0-.26,.12-.42,.19-.14,.05-.3,.11-.4,.14-.13,.04-.55,.17-.55,.17,0,0-.33,.1-.5,.15-.15,.03-.34,.07-.44,.09-.11,.02-.41,.07-.51,.09-.1,.01-.41,.05-.54,.07-.13,0-.43,.03-.52,.04-.08,0-.34,.01-.5,.02-.16,0-.44-.02-.53-.02-.09,0-.38-.03-.51-.04-.13-.02-.46-.06-.55-.07-.09-.02-.44-.07-.54-.09-.08-.02-.28-.06-.45-.09-.18-.06-.91-.28-1.05-.32-.11-.04-.26-.1-.39-.14-.16-.07-.5-.23-.5-.23,0,0-.26-.12-.41-.19-.14-.08-.43-.24-.43-.24,0,0-.24-.13-.43-.24-.15-.12-.33-.25-.33-.25,0,0-.36-.26-.48-.35-.08-.07-.21-.17-.32-.26-.12-.12-.58-.55-.71-.68-.12-.14-.59-.68-.67-.77-.06-.08-.19-.24-.27-.34-.07-.1-.15-.22-.23-.33-.07-.13-.17-.3-.21-.37-.05-.09-.38-.71-.46-.87-.07-.18-.26-.7-.33-.87-.04-.14-.09-.3-.11-.39-.02-.1-.09-.37-.11-.47-.02-.09-.05-.28-.08-.42-.02-.17-.07-.55-.07-.55,0,0-.03-.32-.04-.46,0-.12-.02-.37-.02-.47,0-.17,.16-57.23,.16-57.23l.02-3,.03-3.1v-3.22l-.05-1.63-.07-1.57-.12-1.68-.17-1.72-.22-1.59-.29-1.77-.4-1.6-.42-1.62-.57-1.63-.64-1.57-.76-1.59-.91-1.49-1.02-1.49-1.2-1.4-1.31-1.31-1.46-1.21-1.59-1.12-1.73-1.03-1.92-.92s-1.66-.63-1.84-.7h3.63V77.07h2.75Z"/></g></svg>