<?xml version="1.0" encoding="UTF-8"?>
<svg version="1.1" xmlns="http://www.w3.org/2000/svg" width="3257" height="1864">
<path d="M0 0 C4.29178031 1.08282192 8.04498954 1.25320051 12.44181313 1.22682777 C13.28616354 1.22977137 14.13051396 1.23271497 15.00045075 1.23574777 C17.83839686 1.24319266 20.67612873 1.23637463 23.51407411 1.22966378 C25.57763511 1.23209724 27.64119524 1.23540709 29.70475359 1.23951408 C35.41145497 1.24830594 41.11809147 1.24456794 46.8247943 1.23889876 C53.04271322 1.23492096 59.26061957 1.24252912 65.47853522 1.24867707 C76.43026827 1.25789194 87.38197969 1.25968696 98.33371539 1.25657595 C110.15072458 1.25326013 121.96772144 1.25434201 133.78472951 1.26072035 C134.53329847 1.26112172 135.28186743 1.26152309 136.05312031 1.26193662 C139.87505566 1.26400555 143.69699097 1.26614463 147.51892628 1.26830765 C175.45624135 1.28396818 203.39355187 1.28976905 231.33087094 1.29064112 C259.6557274 1.29155772 287.98057811 1.29683343 316.30543264 1.30747156 C317.64431894 1.3079715 317.64431894 1.3079715 319.01025346 1.30848153 C327.1900027 1.3115374 335.36975193 1.31464192 343.54950113 1.31780444 C364.06288472 1.32573318 384.57626851 1.33300133 405.0896525 1.3398314 C406.0297517 1.34014488 406.9698509 1.34045836 407.93843796 1.34078133 C454.30656416 1.35618397 500.6746913 1.36408624 547.04281934 1.37151079 C563.36985295 1.37413028 579.69688655 1.37678537 596.02392014 1.37957173 C597.03883754 1.37974491 598.05375494 1.37991809 599.09942741 1.38009651 C646.09893724 1.38815989 693.0984452 1.40134458 740.09795344 1.41584405 C743.17115086 1.41679189 746.24434828 1.41773731 749.3175457 1.41868211 C767.84876975 1.42438148 786.37999378 1.43013424 804.9112178 1.43594864 C850.98138683 1.45040139 897.05155604 1.46421371 943.1217254 1.4775918 C944.69500283 1.47804914 944.69500283 1.47804914 946.30006364 1.47851571 C1014.24047652 1.49826003 1082.18088976 1.51536757 1150.12130387 1.53026896 C1151.20615427 1.53050692 1152.29100466 1.53074488 1153.4087293 1.53099006 C1186.43290785 1.53822835 1219.45708644 1.54527156 1252.48126503 1.55227662 C1289.02672173 1.56002946 1325.57217843 1.56781558 1362.11763509 1.57574587 C1363.76602293 1.5761034 1363.76602293 1.5761034 1365.44771154 1.57646815 C1469.80813551 1.5991145 1574.16855783 1.62713127 1678.52898009 1.65653797 C1682.94896947 1.65778305 1687.36895885 1.65902657 1691.78894823 1.66027002 C1732.46244502 1.67171263 1773.13594179 1.68321829 1813.80943854 1.69480315 C1814.8909774 1.69511119 1815.97251625 1.69541924 1817.08682901 1.69573662 C1820.36143769 1.69666931 1823.63604636 1.69760202 1826.91065504 1.69853474 C1915.37735508 1.72373267 2003.84405528 1.74838063 2092.31075557 1.77267234 C2095.43217454 1.77352958 2098.5535935 1.77438724 2101.67501247 1.77524502 C2203.06100606 1.80310481 2304.44699984 1.82997396 2664.10188802 1.91479616 C2664.97965819 1.91499605 2665.85742836 1.91519593 2666.76179763 1.91540187 C2692.73143383 1.92131536 2718.70107003 1.92720524 2744.67070624 1.93306989 C2747.66240628 1.93374552 2750.65410632 1.93442136 2753.64580636 1.93509722 C2813.38515449 1.9485854 2873.12450271 1.96168371 2932.86385091 1.97485476 C2932.86385091 138.59485476 2932.86385091 275.21485476 2932.86385091 415.97485476 C2896.35355748 415.97627978 2859.84326406 415.9777048 2822.2265981 415.979173 C2787.36356316 415.98077428 2787.36356316 415.98077428 2752.50052823 415.98253271 C2749.36988586 415.98269758 2746.23924349 415.98286216 2743.10860112 415.98302645 C2717.18367461 415.98438867 2691.25874811 415.98582236 2665.33382161 415.98730593 C2664.02488249 415.98738073 2664.02488249 415.98738073 2662.68950015 415.98745704 C2568.77787286 415.99282625 2474.86624562 415.99930215 2102.28181425 416.04860459 C2099.17110505 416.04915026 2096.06039584 416.04969487 2092.94968664 416.05023913 C2004.80497452 416.06566321 1916.66026261 416.08205614 1828.51555092 416.09974631 C1825.25315332 416.10040106 1821.99075572 416.10105574 1818.72835813 416.10171038 C1817.65084548 416.10192661 1816.57333283 416.10214284 1815.46316828 416.10236563 C1774.94735237 416.11049355 1734.43153642 416.11840012 1693.91572044 416.12617456 C1689.51361563 416.12701948 1685.11151083 416.12786693 1680.70940602 416.12871666 C1576.79952306 416.14877236 1472.88964167 416.16484903 1368.97975667 416.16796999 C1367.88605964 416.16800312 1366.7923626 416.16803625 1365.66552324 416.16807039 C1329.29521546 416.1691658 1292.92490768 416.16987481 1256.5545999 416.17053054 C1223.69255912 416.1711242 1190.83051834 416.1718566 1157.96847757 416.1730464 C1156.3491678 416.17310494 1156.3491678 416.17310494 1154.6971447 416.17316467 C1087.08897853 416.17564517 1019.48081511 416.1841359 951.87265046 416.19869833 C950.30636051 416.19903451 950.30636051 416.19903451 948.70842833 416.19937748 C902.84976375 416.20922509 856.99109955 416.22032593 811.13243563 416.23285982 C792.68309851 416.23789652 774.23376134 416.24274758 755.78442415 416.24749698 C752.72538855 416.24828602 749.66635294 416.24908107 746.60731734 416.24987677 C699.81228255 416.26200578 653.01725171 416.26999291 606.22221525 416.26595598 C604.7083377 416.26582547 604.7083377 416.26582547 603.16387677 416.26569233 C586.92851155 416.26426738 570.69314636 416.26249711 554.45778118 416.26066726 C508.36641445 416.25547257 462.27505412 416.25260509 416.18368884 416.26747983 C415.24840439 416.26778051 414.31311994 416.26808118 413.34949353 416.26839097 C392.94419648 416.27500045 372.5389002 416.28297325 352.1336042 416.29228005 C343.99524429 416.29596992 335.85688431 416.29947304 327.7185243 416.30291491 C326.38688632 416.30348537 326.38688632 416.30348537 325.02834657 416.30406735 C296.87460585 416.31603836 268.72089509 416.31263302 240.56715527 416.30032327 C212.84175142 416.28826288 185.1163964 416.29134351 157.39099978 416.31643849 C153.59152273 416.31987495 149.79204554 416.32313637 145.99256824 416.32629248 C144.8768558 416.32722925 144.8768558 416.32722925 143.73860371 416.32818495 C132.02320658 416.3375661 120.30788296 416.33029722 108.59249348 416.31584679 C97.12243687 416.30203968 85.65253925 416.30644866 74.18248842 416.32892263 C68.07930448 416.34037192 61.97639769 416.34408148 55.87322488 416.32554028 C50.32706556 416.30883698 44.78142335 416.31544505 39.23529777 416.34002436 C37.25461216 416.34484207 35.27388326 416.34147419 33.29323465 416.3284447 C21.21246658 416.25454343 10.36956835 417.58100825 -1.30921053 420.73226351 C-18.89271172 425.46005744 -37.15545432 426.21163287 -55.26114909 426.22485476 C-56.09663279 426.2255295 -56.9321165 426.22620425 -57.79291789 426.22689944 C-81.00933782 426.19728913 -104.95281817 424.3692984 -127.13614909 416.97485476 C-224.65114909 416.47985476 -224.65114909 416.47985476 -324.13614909 415.97485476 C-324.13614909 279.35485476 -324.13614909 142.73485476 -324.13614909 1.97485476 C-225.13614909 1.47985476 -225.13614909 1.47985476 -124.13614909 0.97485476 C-114.73114909 -1.50014524 -114.73114909 -1.50014524 -105.13614909 -4.02514524 C-101.64393537 -4.69617954 -98.26908831 -5.31781897 -94.76114909 -5.77514524 C-93.92430583 -5.89091917 -93.08746257 -6.00669309 -92.22526042 -6.12597532 C-89.86403882 -6.44376636 -87.50157668 -6.74057053 -85.13614909 -7.02514524 C-84.03400065 -7.15791868 -82.93185222 -7.29069212 -81.79630534 -7.42748899 C-55.13728401 -9.98479327 -25.5746785 -8.35985765 0 0 Z " fill="#FEFEFE" transform="translate(324.13614909001626,1438.025145241525)"/>
<path d="M0 0 C0.96228516 0.45310547 1.92457031 0.90621094 2.91601562 1.37304688 C23.36971028 11.06163908 42.92317078 22.35153974 61 36 C62.04671875 36.78503906 63.0934375 37.57007812 64.171875 38.37890625 C76.53823947 47.73341086 88.58665037 57.50205554 100 68 C101.66624255 69.47964441 103.33291702 70.95880256 105 72.4375 C112.84033755 79.50241955 120.17332628 86.95528906 127 95 C127.78632812 95.8971875 128.57265625 96.794375 129.3828125 97.71875 C191.00856265 168.48444744 214 260.9565996 214 353 C120.61 353 27.22 353 -69 353 C-69.33 346.4 -69.66 339.8 -70 333 C-70.34781358 329.55241541 -70.70360301 326.21738387 -71.25 322.8125 C-71.37713379 321.99845703 -71.50426758 321.18441406 -71.63525391 320.34570312 C-76.77822075 289.52382502 -92.03163647 260.34212334 -117.6875 241.875 C-143.64945531 223.80177697 -171.90056908 213.40374244 -203 208 C-203.74685059 207.86722656 -204.49370117 207.73445312 -205.26318359 207.59765625 C-250.59401383 199.95123333 -302.97511125 208.24939497 -341.30078125 234.23828125 C-343.6446237 236.0699639 -345.8371208 237.95996181 -348 240 C-348.93779297 240.82177734 -348.93779297 240.82177734 -349.89453125 241.66015625 C-355.02178341 246.38527098 -358.51220723 252.00535617 -362 258 C-362.45375 258.74636719 -362.9075 259.49273437 -363.375 260.26171875 C-373.75742799 278.85275387 -376.54735716 306.0483572 -371.5 326.5625 C-367.89517909 338.78588921 -361.54839297 349.57932203 -353 359 C-352.27425781 359.80695313 -351.54851562 360.61390625 -350.80078125 361.4453125 C-346.14736228 366.35255432 -341.14720789 370.63522061 -335.75 374.6875 C-334.91166626 375.32836548 -334.91166626 375.32836548 -334.05639648 375.98217773 C-323.70918255 383.50677163 -311.82394098 388.07235389 -299.734375 391.93359375 C-298.39042936 392.37158076 -297.04679436 392.8105219 -295.70344543 393.25033569 C-292.13119936 394.41685096 -288.55470877 395.56977642 -284.97716141 396.71991348 C-281.1917103 397.93957752 -277.41049724 399.17225627 -273.62866211 400.40307617 C-255.66163957 406.24392352 -237.66951242 412.00764757 -219.66564941 417.7338562 C-197.72861351 424.71177419 -175.87243346 431.93241157 -154.01205444 439.14590454 C-135.15771109 445.36691309 -116.29385542 451.54617893 -97.368927 457.54986572 C-9.49000115 485.43858167 79.69767415 516.6468196 149 580 C149.9590625 580.85464844 150.918125 581.70929687 151.90625 582.58984375 C173.55536664 601.95400985 191.86530908 625.65190128 206 651 C206.45874512 651.82177734 206.91749023 652.64355469 207.39013672 653.49023438 C236.30906033 705.85513001 247.21922881 763.75025599 247.25 823.0625 C247.25101212 824.8193512 247.25101212 824.8193512 247.25204468 826.61169434 C247.16878923 918.05574119 225.45862852 1012.27388493 166 1084 C164.80503906 1085.45599609 164.80503906 1085.45599609 163.5859375 1086.94140625 C152.63424177 1100.16784329 140.94375765 1112.70425394 128 1124 C127.49823242 1124.44118164 126.99646484 1124.88236328 126.47949219 1125.33691406 C62.31647204 1181.57557886 -21.60512966 1211.45284871 -105 1224 C-106.28068359 1224.19287598 -107.56136719 1224.38575195 -108.88085938 1224.58447266 C-190.23120817 1236.50435642 -275.48114896 1235.9466943 -458 1185 C-459.56593375 1184.29192288 -461.1323048 1183.58481163 -462.69921875 1182.87890625 C-499.69930837 1166.04737814 -537.11503471 1142.01786391 -565.4375 1112.5625 C-567.17065598 1110.82934402 -569.00188648 1109.26793953 -570.875 1107.6875 C-574.81369846 1104.28658537 -578.23239311 1100.55054402 -581.6640625 1096.64453125 C-583.1956818 1094.91057428 -584.75246807 1093.19845792 -586.3359375 1091.51171875 C-593.2832328 1084.10351874 -599.4205924 1076.18766189 -605.47753906 1068.04443359 C-606.81610706 1066.24694026 -608.16822063 1064.46071435 -609.5234375 1062.67578125 C-666.48460775 985.74981544 -684 888.57760698 -684 795 C-591.93 795 -499.86 795 -405 795 C-404.34 806.22 -403.68 817.44 -403 829 C-398.4835254 864.48658612 -389.22170512 898.10451271 -366 926 C-365.25878906 926.89460937 -364.51757812 927.78921875 -363.75390625 928.7109375 C-331.54242955 966.03261283 -279.03830798 979.37042127 -231.96484375 983.59375 C-222.67684756 984.24509781 -213.36925863 984.2441538 -204.0625 984.25 C-203.09356812 984.25067474 -202.12463623 984.25134949 -201.12634277 984.25204468 C-151.16960353 984.19706699 -98.90820493 975.50678018 -61 940 C-39.70709585 918.00896785 -33.35472308 887.8341934 -33.7890625 858.0390625 C-34.61205704 831.06313024 -49.64037619 808.33042888 -68.58984375 790.1015625 C-104.40888719 756.82819569 -153.17619443 737.38819273 -199.75454712 725.05300903 C-245.61604267 712.87722421 -290.91990818 698.78989349 -336 684 C-336.96871033 683.68224609 -337.93742065 683.36449219 -338.93548584 683.03710938 C-377.21266573 670.45626729 -414.59617933 656.30549884 -451 639 C-452.11036621 638.4730957 -453.22073242 637.94619141 -454.36474609 637.40332031 C-469.7155494 630.05927338 -484.43737627 621.79495596 -499 613 C-499.76812012 612.53851562 -500.53624023 612.07703125 -501.32763672 611.6015625 C-529.80516261 594.42526176 -557.74073836 573.80221589 -579 548 C-579.44633789 547.46745605 -579.89267578 546.93491211 -580.35253906 546.38623047 C-627.37420297 490.22730002 -653.73918638 419.57931735 -654.23828125 346.1875 C-654.2480751 344.99198517 -654.25786896 343.79647034 -654.26795959 342.56472778 C-654.84593272 253.67339673 -634.45408099 168.04028303 -574 100 C-573.36449219 99.2783667 -572.72898437 98.5567334 -572.07421875 97.81323242 C-566.60293491 91.65620619 -560.92149239 85.73522368 -555.09863281 79.91333008 C-553.6279359 78.44044028 -552.16546466 76.95969735 -550.703125 75.47851562 C-544.47024874 69.2091978 -537.92022966 63.5066246 -531 58 C-529.96054634 57.12509935 -528.92540657 56.24499085 -527.8984375 55.35546875 C-455.02002585 -7.25678894 -355.11091729 -34.77456621 -261 -41 C-260.18595703 -41.05784668 -259.37191406 -41.11569336 -258.53320312 -41.17529297 C-182.1472914 -46.42877302 -103.72912104 -38.25626904 0 0 Z " fill="#114374" transform="translate(826,42)"/>
<path d="M0 0 C1.01384766 0.45874512 2.02769531 0.91749023 3.07226562 1.39013672 C48.75380514 22.21378006 91.37167806 50.90773395 128.46435547 84.69921875 C130.05645723 86.14385258 131.65541828 87.58099996 133.26416016 89.00708008 C139.29578188 94.36145161 145.07943013 99.9234778 150.76928711 105.63891602 C152.19337492 107.06839717 153.62278044 108.49240511 155.05273438 109.91601562 C160.24579084 115.1163098 165.23384185 120.40767712 170 126 C170.92525318 127.04849289 171.85225641 128.09544479 172.78125 129.140625 C190.77107642 149.60988168 206.56147769 172.29913862 220 196 C220.48291504 196.84836426 220.96583008 197.69672852 221.46337891 198.57080078 C259.52818317 265.90721705 275 340.06274339 275 417 C182.27 417 89.54 417 -6 417 C-8.475 402.15 -8.475 402.15 -11 387 C-14.55072167 372.66799616 -18.14198729 358.55816778 -24 345 C-24.47493896 343.89398438 -24.47493896 343.89398438 -24.95947266 342.765625 C-33.83227249 322.41756198 -45.91730658 305.24082881 -61 289 C-61.86625 288.03513672 -61.86625 288.03513672 -62.75 287.05078125 C-73.84287823 275.23983725 -88.0776502 266.11338161 -102 258 C-102.5995752 257.64599121 -103.19915039 257.29198242 -103.81689453 256.92724609 C-155.89547993 226.49690184 -226.9702641 221.58548692 -284.53125 236.3828125 C-326.13801509 247.60672027 -363.07444064 270.00535566 -390 304 C-391.15628906 305.41345703 -391.15628906 305.41345703 -392.3359375 306.85546875 C-441.72821267 368.6357741 -461.91451647 452.46282019 -468.75 529.875 C-468.80925659 530.54554413 -468.86851318 531.21608826 -468.92956543 531.9069519 C-470.62480645 551.49025276 -471.20730838 571.03465621 -471.1875 590.6875 C-471.18689575 591.80350586 -471.1862915 592.91951172 -471.18566895 594.06933594 C-471.05768606 681.59714277 -456.07264266 772.3823709 -380.140625 883.63671875 C-378.27147093 885.70029213 -376.47676638 887.80514613 -374.6875 889.9375 C-342.09311501 927.07128564 -291.12973197 948.05108924 -242.61328125 951.72265625 C-186.89217447 954.95540999 -126.69484855 945.82492508 -83.32421875 907.84765625 C-80.1390982 904.97527957 -77.06688771 901.99787196 -74 899 C-73.30003906 898.36191406 -72.60007812 897.72382812 -71.87890625 897.06640625 C-30.99632816 858.90366703 -16.59308833 797.91393827 -8.59082031 744.90893555 C-7.73865075 739.27088314 -6.86704372 733.63578416 -6 728 C86.73 728 179.46 728 275 728 C275 769.10585613 275 769.10585613 273.875 782.0625 C273.81097992 782.84308777 273.74695984 783.62367554 273.68099976 784.42791748 C268.09855811 851.85043141 252.41594248 918.76069077 221.015625 979.03808594 C219.93056815 981.13412364 218.87135704 983.24217859 217.8125 985.3515625 C204.8589366 1010.87594571 188.68055951 1034.28281616 170.42675781 1056.26904297 C169.17142258 1057.79202839 167.93926912 1059.33405915 166.7109375 1060.87890625 C157.17881956 1072.8565301 146.35143617 1083.7265922 135.5625 1094.5625 C134.82974854 1095.29992432 134.09699707 1096.03734863 133.34204102 1096.79711914 C128.72268555 1101.40284045 123.94134616 1105.74447477 119 1110 C117.8782687 1110.99782377 116.75840673 1111.99775383 115.640625 1113 C105.5522918 1121.96394611 94.88578679 1130.03433938 84 1138 C82.76040669 1138.91665317 81.52082234 1139.83331847 80.28125 1140.75 C9.34734593 1192.75525714 -75.76994099 1219.1179161 -196 1229 C-197.29808594 1229.02046387 -198.59617187 1229.04092773 -199.93359375 1229.06201172 C-281.584333 1230.23040674 -363.21633222 1217.85151035 -491.8125 1150.9375 C-492.37981842 1150.56167786 -492.94713684 1150.18585571 -493.53164673 1149.79864502 C-501.56892729 1144.45875095 -509.34015533 1138.86546763 -517 1133 C-517.99471313 1132.2428772 -517.99471313 1132.2428772 -519.00952148 1131.47045898 C-528.32564234 1124.34368682 -537.23633352 1116.79181547 -546 1109 C-546.51288574 1108.54641113 -547.02577148 1108.09282227 -547.55419922 1107.62548828 C-555.61330265 1100.46391841 -563.24236975 1092.85947008 -570.875 1085.25 C-571.37354492 1084.75413391 -571.87208984 1084.25826782 -572.38574219 1083.74737549 C-578.14499658 1078.01161179 -583.72993765 1072.19112439 -589 1066 C-590.04502767 1064.80827337 -591.09188594 1063.61814936 -592.140625 1062.4296875 C-599.38518389 1054.16580525 -606.32840164 1045.73222324 -613 1037 C-613.46728516 1036.3910791 -613.93457031 1035.7821582 -614.41601562 1035.15478516 C-669.91160498 962.66883438 -707.45844218 879.21079938 -749 644 C-749.04130035 643.14570404 -749.08260071 642.29140808 -749.12515259 641.41122437 C-749.88861158 625.2502847 -750.2032439 609.11566562 -750.1875 592.9375 C-750.18689575 591.77223785 -750.1862915 590.60697571 -750.18566895 589.40640259 C-750.06389329 502.03905282 -738.44999517 413.60032354 -633 181 C-632.52916992 180.31309082 -632.05833984 179.62618164 -631.57324219 178.91845703 C-616.86351449 157.53944566 -601.06753949 136.60749774 -583.37890625 117.58984375 C-581.47772208 115.52008168 -579.63471147 113.42334888 -577.80029297 111.29541016 C-574.28301535 107.27121624 -570.60080568 103.45557468 -566.81640625 99.68359375 C-566.15720688 99.02343765 -565.49800751 98.36328156 -564.8188324 97.68312073 C-563.43603165 96.29964494 -562.05198924 94.91740917 -560.66674805 93.53637695 C-558.56769657 91.44268331 -556.4740406 89.34370126 -554.38085938 87.24414062 C-553.02636214 85.89030429 -551.67155469 84.53677825 -550.31640625 83.18359375 C-549.70156876 82.56673203 -549.08673126 81.9498703 -548.45326233 81.3143158 C-544.12973793 77.0136026 -539.62305434 72.97520547 -535 69 C-534.03578125 68.154375 -533.0715625 67.30875 -532.078125 66.4375 C-522.42842031 58.12062745 -512.26607636 50.53527958 -502 43 C-500.93289795 42.20891846 -500.93289795 42.20891846 -499.84423828 41.40185547 C-428.61342993 -11.27086604 -342.45984124 -37.0823455 -255 -44 C-253.68225586 -44.10803955 -253.68225586 -44.10803955 -252.33789062 -44.21826172 C-179.59668198 -49.90777119 -104.25893362 -39.63901619 0 0 Z " fill="#114374" transform="translate(1932,45)"/>
<path d="M0 0 C308.22 0 616.44 0 934 0 C934 89.1 934 178.2 934 270 C826.42 270 718.84 270 608 270 C608 579.21 608 888.42 608 1207 C513.29 1207 418.58 1207 321 1207 C321 897.79 321 588.58 321 270 C215.07 270 109.14 270 0 270 C0 180.9 0 91.8 0 0 Z " fill="#114374" transform="translate(2290,64)"/>
<path d="M0 0 C3.90026797 1.00370066 7.17559871 1.22996585 11.19555467 1.23717654 C11.91106016 1.2411726 12.62656564 1.24516866 13.36375311 1.24928582 C15.75563407 1.26023403 18.14728269 1.25706252 20.53918356 1.25393641 C22.27351895 1.25894075 24.007852 1.26481695 25.74218178 1.27148914 C30.50363772 1.28728643 35.26503465 1.29071968 40.02651364 1.29213774 C45.16278833 1.29583225 50.29903067 1.31098799 55.43528646 1.32475245 C64.33276875 1.34702748 73.23023953 1.36203932 82.12774366 1.37211955 C94.99204153 1.38670436 107.85629932 1.41224066 120.72057367 1.44045083 C141.59194885 1.48592239 162.4633298 1.52253571 183.33473104 1.55358851 C203.60948093 1.58377255 223.88421671 1.61812217 244.15894979 1.6580807 C245.40866188 1.66054225 246.65837396 1.66300379 247.9459561 1.66553994 C254.21538765 1.67791451 260.48481904 1.69037105 266.75425035 1.70286834 C318.76632772 1.80644159 370.77842271 1.89564306 422.79054159 1.97546351 C424.27400449 5.60530389 425.75632699 9.23560785 427.23769182 12.86630499 C427.98332063 14.69314439 428.72979598 16.51963819 429.47629446 18.34612238 C433.67015341 28.62742018 437.72018477 38.95997928 441.71055502 49.32165492 C443.73962544 54.58985604 445.77740085 59.85469251 447.81397909 65.11999476 C448.22848821 66.19222285 448.64299734 67.26445094 449.07006735 68.36917078 C453.34288766 79.41629491 457.65679163 90.44721116 461.97804159 101.47546351 C462.72878694 103.39188097 463.47951939 105.30830349 464.23023885 107.22473109 C465.34028682 110.05842252 466.45034088 112.89211155 467.56051534 115.72575343 C471.31299089 125.30542861 475.05232765 134.89021621 478.79054159 144.47546351 C484.44748622 158.97927573 490.11571986 173.47863694 495.79054159 187.97546351 C501.50612051 202.57680755 507.21626303 217.18024876 512.91554159 231.78796351 C513.24266134 232.62638789 513.56978109 233.46481226 513.90681356 234.32864344 C516.5281941 241.04763863 519.14900641 247.76685543 521.76978964 254.48608363 C524.06810297 260.37848252 526.3666505 266.27079 528.66554159 272.16296351 C528.99250021 273.00098505 529.31945883 273.8390066 529.65632528 274.70242274 C535.40460504 289.43452931 541.16562345 304.16163493 546.93046468 318.88726771 C550.96860227 329.20234294 555.00444695 339.51829142 559.02882284 349.83874476 C559.37013235 350.71391749 559.71144186 351.58909022 560.06309408 352.49078333 C561.73229651 356.77128177 563.40066169 361.05210413 565.06788534 365.33337367 C568.2447868 373.48637028 571.44105487 381.63096404 574.67726034 389.76061976 C575.29342923 391.31162952 575.90955969 392.86265456 576.52564901 394.41369593 C577.67245083 397.30029436 578.82585154 400.18413189 579.98316854 403.06652796 C580.4921189 404.34597247 581.00084071 405.62550793 581.50929159 406.90515101 C581.95208456 408.0110055 582.39487753 409.11685999 582.85108846 410.25622523 C583.79054159 412.97546351 583.79054159 412.97546351 583.79054159 415.97546351 C582.59452898 415.97568088 581.39851637 415.97589825 580.16626096 415.9761222 C527.42404426 415.98603562 474.68183279 416.00216594 421.93963522 416.04975855 C421.14039375 416.05047801 420.34115229 416.05119746 419.51769139 416.05193871 C402.14552703 416.06761361 384.7733639 416.08439628 367.40120171 416.10231913 C358.88116091 416.11110252 350.36111988 416.11964127 341.8410787 416.1280514 C340.99325915 416.12889245 340.14543959 416.12973349 339.27192854 416.13060003 C311.82118096 416.15771695 284.37045592 416.16869832 256.91969598 416.17125875 C228.69640795 416.17397686 200.47317685 416.19308009 172.24991526 416.23262466 C168.25811891 416.2382101 164.26632234 416.2436094 160.27452558 416.24889529 C159.48892884 416.24994132 158.7033321 416.25098736 157.8939294 416.25206509 C145.27836444 416.2683852 132.66285671 416.26757437 120.04728574 416.26026068 C107.34596031 416.25326637 94.64475307 416.26454969 81.94345931 416.29412641 C75.06905757 416.30963661 68.19487469 416.31734528 61.32046598 416.30206072 C55.01480368 416.28883286 48.70960687 416.29895392 42.40399661 416.32690123 C40.13446563 416.33297157 37.86489271 416.3307987 35.5953838 416.31909277 C21.78016361 416.25346544 9.50615034 417.71242671 -3.81610034 421.37522904 C-7.92414772 422.40549345 -12.09015556 423.07083092 -16.27195841 423.72546351 C-17.42454667 423.90599944 -17.42454667 423.90599944 -18.60041954 424.09018256 C-30.80500306 425.94671955 -43.01601431 426.21646783 -55.33445841 426.22546351 C-56.16994211 426.22613825 -57.00542582 426.226813 -57.86622721 426.22750819 C-81.08264714 426.19789788 -105.02612749 424.36990715 -127.20945841 416.97546351 C-224.72445841 416.48046351 -224.72445841 416.48046351 -324.20945841 415.97546351 C-324.20945841 279.35546351 -324.20945841 142.73546351 -324.20945841 1.97546351 C-225.20945841 1.48046351 -225.20945841 1.48046351 -124.20945841 0.97546351 C-114.80445841 -1.49953649 -114.80445841 -1.49953649 -105.20945841 -4.02453649 C-101.71724469 -4.69557079 -98.34239763 -5.31721022 -94.83445841 -5.77453649 C-93.99761515 -5.89031042 -93.16077189 -6.00608434 -92.29856974 -6.12536657 C-89.93734814 -6.44315761 -87.574886 -6.73996178 -85.20945841 -7.02453649 C-84.10730997 -7.15730993 -83.00516154 -7.29008337 -81.86961466 -7.42688024 C-55.08231278 -9.99649001 -25.73279485 -8.21452842 0 0 Z " fill="#FEFEFE" transform="translate(324.2094584107399,1438.0245364904404)"/>
<path d="M0 0 C277.53 0 555.06 0 841 0 C840.19067681 4.85593914 839.07501495 8.79911281 837.25390625 13.28125 C836.97164185 13.99029984 836.68937744 14.69934967 836.39855957 15.42988586 C835.78312122 16.9740383 835.16498325 18.51711689 834.54446411 20.05923462 C833.18886335 23.42870949 831.84671032 26.80349369 830.50352478 30.17793274 C829.78500777 31.98263298 829.06580579 33.78706065 828.34596252 35.5912323 C824.20300604 45.97935625 820.13232475 56.39556003 816.0625 66.8125 C815.2984773 68.76654211 814.53439834 70.72056222 813.77026367 72.67456055 C806.16992569 92.11237108 798.58404897 111.55582958 791 131 C788.37529539 137.72928193 785.75039268 144.45848649 783.125 151.1875 C782.79804138 152.02552155 782.47108276 152.86354309 782.13421631 153.72695923 C776.38489388 168.46173803 770.6223616 183.19132988 764.85705566 197.91986084 C759.52265766 211.5479953 754.19437991 225.17849641 748.875 238.8125 C748.54788025 239.65092438 748.2207605 240.48934875 747.88372803 241.35317993 C745.5888379 247.23533077 743.29436721 253.11764518 741 259 C738.37529539 265.72928193 735.75039268 272.45848649 733.125 279.1875 C732.79804138 280.02552155 732.47108276 280.86354309 732.13421631 281.72695923 C727.14420712 294.51571521 722.14505419 307.3008766 717.14129639 320.08425903 C710.92281652 335.97099688 704.70597064 351.85837067 698.5 367.75 C698.168862 368.59763916 697.837724 369.44527832 697.49655151 370.31860352 C694.24783601 378.63631162 691.00725405 386.95677001 687.81640625 395.296875 C687.34460937 396.52954102 686.8728125 397.76220703 686.38671875 399.03222656 C685.53114973 401.27273216 684.67810589 403.51420441 683.828125 405.75683594 C683.46332031 406.71364258 683.09851562 407.67044922 682.72265625 408.65625 C682.41078369 409.47931641 682.09891113 410.30238281 681.77758789 411.15039062 C681 413 681 413 680 414 C677.24897889 414.09897699 674.52304361 414.13175626 671.77153683 414.12304783 C670.45540715 414.1247786 670.45540715 414.1247786 669.11268899 414.12654433 C666.13394036 414.1292188 663.15524437 414.12468205 660.17649841 414.12025452 C658.03486384 414.12069005 655.89322932 414.12156462 653.75159508 414.12284368 C647.83643089 414.12509217 641.92128461 414.12106255 636.00612271 414.11606562 C629.63866431 414.11176635 623.271207 414.11320717 616.90374756 414.1139679 C605.86169121 414.11449347 594.81964083 414.11137796 583.77758598 414.10573006 C572.19261078 414.0998196 560.60763791 414.09596544 549.02266121 414.09487724 C548.30321597 414.0948085 547.58377073 414.09473976 546.84252412 414.09466894 C543.18904977 414.09433062 539.53557542 414.09402923 535.88210107 414.09374207 C509.98267841 414.09163984 484.08325882 414.08489742 458.18383789 414.07543945 C433.01782243 414.06625989 407.85180781 414.05917389 382.68579102 414.05493164 C381.91050752 414.05480011 381.13522403 414.05466859 380.3364471 414.05453308 C372.55096217 414.05321459 364.76547723 414.05193877 356.97999228 414.05069422 C341.11907216 414.04815778 325.2581521 414.04533653 309.39723206 414.04234314 C308.66792059 414.04220585 307.93860913 414.04206856 307.18719732 414.04192711 C258.45813024 414.0327214 209.72906497 414.01685487 161 414 C160.77455291 413.41832314 160.54910582 412.83664627 160.316827 412.23734283 C157.94269151 406.11194894 155.56826336 399.98666855 153.19367504 393.8614502 C152.31079834 391.58397202 151.42799305 389.30646616 150.54526424 387.02893066 C144.70450289 371.9593128 138.85064198 356.89532772 132.9352417 341.85482788 C130.88020392 336.62942371 128.82903903 331.40249851 126.77734375 326.17578125 C126.37034241 325.13915848 125.96334106 324.10253571 125.54400635 323.03450012 C121.64084344 313.09075846 117.75550643 303.14010114 113.875 293.1875 C108.26016481 278.78767716 102.63411263 264.39229155 97 250 C91.28437018 235.39867593 85.57427854 220.79521468 79.875 206.1875 C79.38432037 204.92986343 79.38432037 204.92986343 78.88372803 203.64682007 C76.26234749 196.92782487 73.64153518 190.20860808 71.02075195 183.48937988 C68.72243862 177.59698099 66.42389109 171.70467351 64.125 165.8125 C63.79804138 164.97447845 63.47108276 164.13645691 63.13421631 163.27304077 C57.76481929 149.51196227 52.38432442 135.75524383 47 122 C41.28447195 107.39863579 35.57440908 92.79516402 29.875 78.1875 C29.55186829 77.35937805 29.22873657 76.5312561 28.89581299 75.67803955 C25.51332606 67.00921299 22.13222658 58.33984688 18.75314331 49.66969299 C17.30829112 45.96273441 15.86294469 42.25596863 14.4175415 38.54922485 C13.73609875 36.80125497 13.05489554 35.05319167 12.3739624 33.30502319 C11.42438887 30.86717633 10.47407579 28.42961933 9.5234375 25.9921875 C9.22581512 25.22830215 8.92819275 24.46441681 8.62155151 23.67738342 C7.17140547 19.96398357 5.70562541 16.25800999 4.20800781 12.56347656 C3.92631744 11.86739288 3.64462708 11.1713092 3.35440063 10.45413208 C2.590647 8.57240572 1.82210711 6.69262399 1.05322266 4.81298828 C0 2 0 2 0 0 Z " fill="#FEFEFE" transform="translate(747,1440)"/>
<path d="M0 0 C50.74771952 -0.05140174 101.49544092 -0.09915745 152.24317932 -0.12702942 C152.99534722 -0.12744359 153.74751511 -0.12785776 154.52247598 -0.12828448 C170.87267154 -0.1372651 187.22286738 -0.14557537 203.57306364 -0.15319599 C211.59224756 -0.1569377 219.61143142 -0.1608274 227.63061523 -0.16479492 C228.42858194 -0.1651872 229.22654865 -0.16557948 230.04869616 -0.16598364 C255.87093212 -0.17874701 281.69314826 -0.20126543 307.51537223 -0.22889166 C334.07113852 -0.2572508 360.62689387 -0.27567052 387.18267506 -0.28174497 C390.94128782 -0.28260932 394.69990054 -0.28358623 398.45851326 -0.28463173 C399.56803788 -0.28493513 399.56803788 -0.28493513 400.69997715 -0.28524467 C412.56344585 -0.28877734 424.42688051 -0.30265759 436.29033537 -0.3204961 C448.24338838 -0.33824529 460.19640796 -0.34488221 472.14947366 -0.34050413 C478.61523553 -0.33859098 485.08089826 -0.34143274 491.5466423 -0.35761642 C497.48354262 -0.37236672 503.42027843 -0.3728557 509.3571868 -0.36269668 C511.48817265 -0.36144373 513.61916937 -0.36511997 515.75013428 -0.37464955 C535.61912355 -0.45822802 555.7108542 0.95514648 575 6 C575.64275879 6.16193848 576.28551758 6.32387695 576.94775391 6.49072266 C598.69364472 12.04122932 617.01497252 22.15803989 633 38 C633.87785156 38.86496094 634.75570312 39.72992187 635.66015625 40.62109375 C658.50870075 64.38781778 666.49120094 99.09068802 666.30029297 131.2434082 C665.54928075 160.72571201 658.44550963 191.11491686 639 214 C638.31550781 214.845625 637.63101563 215.69125 636.92578125 216.5625 C624.19657699 231.62107806 607.36422133 241.38795166 589 248 C587.78957031 248.4434375 586.57914063 248.886875 585.33203125 249.34375 C565.82939558 255.97262513 544.95057747 258.18063509 524.43847656 258.11352539 C523.22774349 258.11364593 522.01701042 258.11376646 520.76958847 258.11389065 C516.8932479 258.11315083 513.01695685 258.10556545 509.140625 258.09765625 C506.73030622 258.09618394 504.31998713 258.09516501 501.90966797 258.09460449 C493.02310707 258.08938507 484.13655304 258.07542382 475.25 258.0625 C455.3675 258.041875 435.485 258.02125 415 258 C415 309.48 415 360.96 415 414 C224.92 414 34.84 414 -161 414 C-154.11056604 394.47993711 -154.11056604 394.47993711 -150.671875 385.80078125 C-150.28547852 384.81815811 -149.89908203 383.83553497 -149.50097656 382.82313538 C-148.25331891 379.65186559 -147.00164165 376.4821992 -145.75 373.3125 C-144.86327061 371.06019091 -143.97688354 368.80774702 -143.09082031 366.55517578 C-141.27775261 361.94635916 -139.46349596 357.33801341 -137.6484375 352.72998047 C-133.66698916 342.6176446 -129.70825758 332.4964302 -125.75 322.375 C-125.00506382 320.47085875 -124.26010943 318.56672462 -123.51513672 316.66259766 C-115.99785627 297.44650686 -108.49802172 278.22361167 -101 259 C-98.37529539 252.27071807 -95.75039268 245.54151351 -93.125 238.8125 C-92.79804138 237.97447845 -92.47108276 237.13645691 -92.13421631 236.27304077 C-86.38489388 221.53826197 -80.6223616 206.80867012 -74.85705566 192.08013916 C-69.52265766 178.4520047 -64.19437991 164.82150359 -58.875 151.1875 C-58.54788025 150.34907562 -58.2207605 149.51065125 -57.88372803 148.64682007 C-55.5888379 142.76466923 -53.29436721 136.88235482 -51 131 C-48.37529539 124.27071807 -45.75039268 117.54151351 -43.125 110.8125 C-42.79804138 109.97447845 -42.47108276 109.13645691 -42.13421631 108.27304077 C-37.14338518 95.48217828 -32.14340614 82.69491202 -27.13882446 69.90942383 C-21.09044645 54.45726621 -15.04295461 39.00476106 -9.00610352 23.5480957 C-8.29868383 21.7371207 -7.59100525 19.92624681 -6.88305664 18.11547852 C-5.9096044 15.62544118 -4.93709429 13.13503799 -3.96484375 10.64453125 C-3.67721664 9.90934769 -3.38958954 9.17416412 -3.09324646 8.41670227 C-2.00465726 5.62567942 -0.94755077 2.8426523 0 0 Z " fill="#FEFEFE" transform="translate(1588,1440)"/>
<path d="M0 0 C117.81 0 235.62 0 357 0 C350.58443056 16.91377398 344.16621522 33.80888986 337.53820801 50.63775635 C335.8180368 55.00551105 334.1018481 59.37482764 332.38540649 63.74404907 C331.51023429 65.97179878 330.63489008 68.19948093 329.7593689 70.42709351 C325.74065615 80.65365764 321.74176871 90.88789378 317.75 101.125 C317.09790307 102.79695743 316.44580347 104.46891381 315.79370117 106.14086914 C314.50452717 109.44653941 313.2155664 112.75229272 311.92675781 116.05810547 C308.66085276 124.43509598 305.39318382 132.8113983 302.125 141.1875 C301.79786011 142.02597473 301.47072021 142.86444946 301.13366699 143.72833252 C295.38453128 158.46265499 289.62218191 173.19178895 283.85705566 187.91986084 C278.52265766 201.5479953 273.19437991 215.17849641 267.875 228.8125 C267.54788025 229.65092438 267.2207605 230.48934875 266.88372803 231.35317993 C264.5888379 237.23533077 262.29436721 243.11764518 260 249 C257.37529539 255.72928193 254.75039268 262.45848649 252.125 269.1875 C251.79804138 270.02552155 251.47108276 270.86354309 251.13421631 271.72695923 C245.76481927 285.48803779 240.38427638 299.24473732 235 313 C229.57687032 326.8549025 224.15650073 340.71087049 218.74685669 354.57104492 C218.08671486 356.26233375 217.42645845 357.95357786 216.76608276 359.64477539 C213.13948817 368.93259772 209.52338169 378.22434316 205.92578125 387.5234375 C204.95042052 390.04184904 203.97491287 392.56020364 202.99938965 395.07855225 C202.0812624 397.45150745 201.16606583 399.82557897 200.25097656 402.19970703 C199.70000615 403.62277415 199.14890704 405.04579146 198.59765625 406.46875 C198.34744217 407.12072357 198.09722809 407.77269714 197.83943176 408.44442749 C196.11372164 412.88627836 196.11372164 412.88627836 195 414 C193.31626147 414.09724601 191.62840739 414.12371524 189.94186306 414.12304783 C188.83911901 414.12503888 187.73637496 414.12702993 186.60021442 414.12908131 C185.3735876 414.12616847 184.14696078 414.12325563 182.88316345 414.12025452 C181.59190648 414.12110894 180.30064951 414.12196337 178.97026354 414.12284368 C175.36961449 414.12509108 171.76899491 414.12106404 168.16834962 414.11606562 C164.29171202 414.11176479 160.41507621 414.11320728 156.53843689 414.1139679 C149.81640666 414.11449337 143.09438611 414.11134417 136.37235832 414.10573006 C126.65332136 414.09761816 116.93428911 414.09500016 107.21524913 414.09374207 C91.4484284 414.09155106 75.68161284 414.08488965 59.91479492 414.07543945 C44.5948082 414.0662666 29.27482289 414.05919661 13.95483398 414.05493164 C12.52493955 414.05452964 12.52493955 414.05452964 11.06615835 414.05411953 C3.61150315 414.05204022 -3.84315209 414.05008326 -11.29780734 414.04816496 C-47.86520963 414.03872379 -84.43259901 414.01860726 -121 414 C-121 362.52 -121 311.04 -121 258 C-61.625 257.6875 -61.625 257.6875 -43.04150391 257.61206055 C-37.42959802 257.5753954 -37.42959802 257.5753954 -31.81771851 257.5349884 C-29.36388926 257.5190883 -26.91002026 257.50863383 -24.45614624 257.50288391 C15.26307571 257.39770726 57.28001607 253.40378551 89 227 C89.92296875 226.25234375 90.8459375 225.5046875 91.796875 224.734375 C116.42283358 203.72578887 126.02991619 171.99446869 128.79345703 140.73876953 C129.29185798 134.12994938 129.38345063 127.61606957 129 121 C128.93619141 119.89809326 128.93619141 119.89809326 128.87109375 118.77392578 C126.78332274 87.23653874 116.49201431 58.52409992 94 36 C93.20980469 35.19820312 92.41960938 34.39640625 91.60546875 33.5703125 C67.10863078 10.089098 32.40130923 4.1426019 0 1 C0 0.67 0 0.34 0 0 Z " fill="#00AEEF" transform="translate(2124,1440)"/>
<path d="M0 0 C0.77251602 0.00359528 1.54503204 0.00719055 2.34095764 0.01089478 C3.55549622 0.01067574 3.55549622 0.01067574 4.79457092 0.01045227 C7.48380671 0.01115163 10.17297412 0.01894507 12.86219788 0.02676392 C14.72164878 0.02862802 16.58110018 0.03005196 18.44055176 0.03105164 C23.34458258 0.03487746 28.24858398 0.04470829 33.15260315 0.05575562 C38.15280255 0.06596836 43.15300669 0.07054896 48.1532135 0.07559204 C57.97158583 0.0863305 67.78993629 0.10340769 77.60829163 0.12442017 C78.05318939 1.26502899 78.49808716 2.40563782 78.95646667 3.58081055 C86.82991061 23.76612964 94.7103156 43.94868531 102.60829163 64.12442017 C108.610696 79.45790214 114.60417558 94.79482455 120.58778381 110.13565063 C125.91862512 123.80223037 131.26099028 137.46427295 136.60829163 151.12442017 C142.32387055 165.72576421 148.03401306 180.32920541 153.73329163 194.93692017 C154.06041138 195.77534454 154.38753113 196.61376892 154.7245636 197.4776001 C157.34594413 204.19659529 159.96675645 210.91581209 162.58753967 217.63504028 C164.88585301 223.52743918 167.18440053 229.41974665 169.48329163 235.31192017 C169.81025024 236.14994171 170.13720886 236.98796326 170.47407532 237.85137939 C175.84347233 251.61245789 181.22396721 265.36917634 186.60829163 279.12442017 C192.32381962 293.72578424 198.03398171 308.32921754 203.73329163 322.93692017 C204.05808502 323.76936249 204.38287842 324.60180481 204.71751404 325.45947266 C208.0548941 334.01344854 211.39125703 342.567821 214.72731018 351.12231445 C216.11678019 354.68504459 217.50654295 358.24766049 218.89631653 361.81027222 C219.90628172 364.39971828 220.91575076 366.98935738 221.92518616 369.57901001 C224.95274848 377.34294226 227.98936023 385.10299014 231.05751038 392.85098267 C231.58250115 394.17869798 232.10748511 395.50641598 232.63246155 396.83413696 C233.58840208 399.25124688 234.54884251 401.66640093 235.51185608 404.08071899 C236.13193542 405.64729248 236.13193542 405.64729248 236.76454163 407.24551392 C237.30304749 408.59794189 237.30304749 408.59794189 237.85243225 409.97769165 C238.60829163 412.12442017 238.60829163 412.12442017 238.60829163 414.12442017 C104.62829163 414.12442017 -29.35170837 414.12442017 -167.39170837 414.12442017 C-160.50728367 394.61855017 -160.50728367 394.61855017 -157.64952087 387.49942017 C-157.32438004 386.68105682 -156.9992392 385.86269348 -156.66424561 385.01953125 C-155.97409166 383.28317704 -155.28255579 381.54737151 -154.5896759 379.81210327 C-152.7080117 375.09871078 -150.83779214 370.38077331 -148.96592712 365.66348267 C-148.58306046 364.69939484 -148.20019379 363.73530701 -147.8057251 362.74200439 C-143.94293033 353.00898866 -140.13036045 343.25664424 -136.32920837 333.49942017 C-136.00122253 332.6578537 -135.67323669 331.81628723 -135.33531189 330.94921875 C-133.67853583 326.69812259 -132.02241412 322.4467721 -130.36680603 318.19522095 C-127.08730551 309.7742799 -123.80192387 301.35563289 -120.51670837 292.93692017 C-120.18984039 292.09917053 -119.86297241 291.2614209 -119.52619934 290.39828491 C-113.7767979 275.66322648 -108.0141754 260.93335962 -102.24876404 246.20455933 C-96.91436604 232.57642487 -91.58608828 218.94592375 -86.26670837 205.31192017 C-85.93958862 204.47349579 -85.61246887 203.63507141 -85.2754364 202.77124023 C-82.98054628 196.88908939 -80.68607558 191.00677499 -78.39170837 185.12442017 C-75.76700377 178.39513824 -73.14210106 171.66593368 -70.51670837 164.93692017 C-70.18974976 164.09889862 -69.86279114 163.26087708 -69.52592468 162.39746094 C-63.77660225 147.66268214 -58.01406998 132.93309029 -52.24876404 118.20455933 C-46.91436597 104.5764247 -41.58621007 90.94587634 -36.26670837 77.31192017 C-35.94357666 76.48379822 -35.62044495 75.65567627 -35.28752136 74.80245972 C-31.90503443 66.13363316 -28.52393495 57.46426705 -25.14485168 48.79411316 C-23.69999949 45.08715458 -22.25465306 41.38038879 -20.80924988 37.67364502 C-20.12780712 35.92567513 -19.44660391 34.17761183 -18.76567078 32.42944336 C-16.6476471 26.99182617 -14.52451518 21.55625723 -12.39170837 16.12442017 C-11.95405151 15.0092804 -11.95405151 15.0092804 -11.5075531 13.87161255 C-10.67267751 11.74886341 -9.83379279 9.62775149 -8.99327087 7.50723267 C-8.51454529 6.29696411 -8.0358197 5.08669556 -7.54258728 3.8397522 C-5.69605925 -0.51686314 -4.59385108 0.00902466 0 0 Z " fill="#FEFEFE" transform="translate(2486.3917083740234,1439.8755798339844)"/>
<path d="M0 0 C27.39 0 54.78 0 83 0 C89.41792909 15.75309866 95.80893323 31.47773137 101.92001343 47.34619141 C103.94908385 52.61439253 105.98685926 57.879229 108.0234375 63.14453125 C108.64520119 64.75287338 108.64520119 64.75287338 109.27952576 66.39370728 C113.55234607 77.4408314 117.86625004 88.47174765 122.1875 99.5 C122.93824535 101.41641746 123.6889778 103.33283998 124.43969727 105.24926758 C125.54974523 108.08295901 126.65979929 110.91664804 127.76997375 113.75028992 C131.5224493 123.3299651 135.26178607 132.9147527 139 142.5 C144.65694463 157.00381222 150.32517827 171.50317343 156 186 C161.71557892 200.60134404 167.42572144 215.20478525 173.125 229.8125 C173.45211975 230.65092438 173.7792395 231.48934875 174.11627197 232.35317993 C176.73765251 239.07217513 179.35846482 245.79139192 181.97924805 252.51062012 C184.27756138 258.40301901 186.57610891 264.29532649 188.875 270.1875 C189.20195862 271.02552155 189.52891724 271.86354309 189.86578369 272.72695923 C195.61406346 287.4590658 201.37508187 302.18617142 207.1399231 316.9118042 C211.17806068 327.22687943 215.21390537 337.54282791 219.23828125 347.86328125 C219.57959076 348.73845398 219.92090027 349.61362671 220.27255249 350.51531982 C221.94175492 354.79581826 223.6101201 359.07664062 225.27734375 363.35791016 C228.45424521 371.51090677 231.65051328 379.65550053 234.88671875 387.78515625 C235.50288764 389.33616601 236.1190181 390.88719105 236.73510742 392.43823242 C237.88190924 395.32483086 239.03530995 398.20866838 240.19262695 401.09106445 C240.70157731 402.37050896 241.21029912 403.65004442 241.71875 404.9296875 C242.16154297 406.03554199 242.60433594 407.14139648 243.06054688 408.28076172 C244 411 244 411 244 414 C110.35 414 -23.3 414 -161 414 C-160.13369624 409.66848118 -158.91568262 405.85475732 -157.32421875 401.7734375 C-156.90902481 400.69488495 -156.90902481 400.69488495 -156.48544312 399.59454346 C-155.55693153 397.18640868 -154.62233345 394.78068705 -153.6875 392.375 C-153.02054795 390.65030674 -152.35380526 388.92553251 -151.68725586 387.20068359 C-144.08161189 367.54590349 -136.36367044 347.93470821 -128.65776062 328.3190918 C-124.67440893 318.17655452 -120.70901518 308.02705752 -116.75 297.875 C-116.42651581 297.0456192 -116.10303162 296.2162384 -115.76974487 295.36172485 C-114.15511879 291.22189721 -112.54080688 287.08194718 -110.92675781 282.94189453 C-107.66085276 274.56490402 -104.39318382 266.1886017 -101.125 257.8125 C-100.79786011 256.97402527 -100.47072021 256.13555054 -100.13366699 255.27166748 C-94.38453128 240.53734501 -88.62218191 225.80821105 -82.85705566 211.08013916 C-77.52265766 197.4520047 -72.19437991 183.82150359 -66.875 170.1875 C-66.54788025 169.34907562 -66.2207605 168.51065125 -65.88372803 167.64682007 C-63.5888379 161.76466923 -61.29436721 155.88235482 -59 150 C-56.37529539 143.27071807 -53.75039268 136.54151351 -51.125 129.8125 C-50.79804138 128.97447845 -50.47108276 128.13645691 -50.13421631 127.27304077 C-44.01091635 111.57980536 -37.8737996 95.89198974 -31.73120117 80.20629883 C-28.01864165 70.72442492 -24.3124389 61.24015486 -20.62109375 51.75 C-19.9095268 49.9218666 -19.19793857 48.09374147 -18.48632812 46.265625 C-17.1769917 42.9018313 -15.8699826 39.5371477 -14.56445312 36.171875 C-9.84707279 24.05160243 -4.92674714 12.04315967 0 0 Z " fill="#FEFEFE" transform="translate(664,1440)"/>
<path d="M0 0 C217.05882353 0 217.05882353 0 240 6 C240.96413818 6.24290771 240.96413818 6.24290771 241.94775391 6.49072266 C263.69364472 12.04122932 282.01497252 22.15803989 298 38 C298.87785156 38.86496094 299.75570312 39.72992187 300.66015625 40.62109375 C323.50870075 64.38781778 331.49120094 99.09068802 331.30029297 131.2434082 C330.54928075 160.72571201 323.44550963 191.11491686 304 214 C303.31550781 214.845625 302.63101563 215.69125 301.92578125 216.5625 C289.19657699 231.62107806 272.36422133 241.38795166 254 248 C252.78957031 248.4434375 251.57914063 248.886875 250.33203125 249.34375 C230.82939558 255.97262513 209.95057747 258.18063509 189.43847656 258.11352539 C188.22774349 258.11364593 187.01701042 258.11376646 185.76958847 258.11389065 C181.8932479 258.11315083 178.01695685 258.10556545 174.140625 258.09765625 C171.73030622 258.09618394 169.31998713 258.09516501 166.90966797 258.09460449 C158.02310707 258.08938507 149.13655304 258.07542382 140.25 258.0625 C120.3675 258.041875 100.485 258.02125 80 258 C80 309.48 80 360.96 80 414 C53.6 414 27.2 414 0 414 C0 277.38 0 140.76 0 0 Z " fill="#FEFEFE" transform="translate(1923,1440)"/>
<path d="M0 0 C110.22 0 220.44 0 334 0 C330.62466605 10.12600184 330.62466605 10.12600184 329.23266602 13.71044922 C328.9162616 14.52818817 328.59985718 15.34592712 328.27386475 16.18844604 C327.76898529 17.48348557 327.76898529 17.48348557 327.25390625 18.8046875 C326.89097473 19.74047638 326.52804321 20.67626526 326.15411377 21.64041138 C324.95913229 24.71947632 323.76091201 27.79726881 322.5625 30.875 C321.7149971 33.0559543 320.86758673 35.23694457 320.02026367 37.41796875 C312.72898041 56.173632 305.38277282 74.90773916 298.02824402 93.63867188 C293.25507635 105.79543489 288.49550224 117.95741157 283.75 130.125 C283.42615326 130.95528717 283.10230652 131.78557434 282.76864624 132.64102173 C281.15438281 136.77993246 279.54045098 140.91897237 277.92675781 145.05810547 C274.66085276 153.43509598 271.39318382 161.8113983 268.125 170.1875 C267.79786011 171.02597473 267.47072021 171.86444946 267.13366699 172.72833252 C261.38453128 187.46265499 255.62218191 202.19178895 249.85705566 216.91986084 C244.52265766 230.5479953 239.19437991 244.17849641 233.875 257.8125 C233.54788025 258.65092438 233.2207605 259.48934875 232.88372803 260.35317993 C230.5888379 266.23533077 228.29436721 272.11764518 226 278 C223.37529539 284.72928193 220.75039268 291.45848649 218.125 298.1875 C217.79804138 299.02552155 217.47108276 299.86354309 217.13421631 300.72695923 C211.76481924 314.48803785 206.38423154 328.24471973 201 342 C195.3673814 356.3906156 189.73675898 370.7820063 184.1159668 385.17724609 C183.42214374 386.95401198 182.72813796 388.73070652 182.03393555 390.50732422 C181.07547406 392.96040345 180.11771706 395.41375657 179.16015625 397.8671875 C178.88285172 398.57656464 178.60554718 399.28594177 178.31983948 400.01681519 C176.50710418 404.66453549 174.7520004 409.32799893 173 414 C119.54 414 66.08 414 11 414 C13.4732071 412.35119526 15.34207711 411.39287362 18.0703125 410.37109375 C52.27492866 397.29970182 80.55242359 377.54855427 96.30078125 343.55419922 C108.30216264 316.18534652 110.30434932 283.2287539 99.97973633 255.04223633 C94.82949184 241.95210337 88.30632241 230.55537513 79 220 C78.53464844 219.3915625 78.06929687 218.783125 77.58984375 218.15625 C64.62015285 201.33928076 41.95358892 190.22695444 21.84790039 184.77441406 C19.78932582 184.21463708 17.73530208 183.63803249 15.68432617 183.05102539 C5.84380366 180.24392406 -4.05465483 177.69429772 -13.984375 175.22265625 C-14.65712526 175.05517883 -15.32987553 174.88770142 -16.02301216 174.71514893 C-21.63785313 173.31847856 -27.25419959 171.92789775 -32.87060547 170.53753662 C-37.74256198 169.33121836 -42.61393862 168.12259831 -47.484375 166.91015625 C-48.15830984 166.74242769 -48.83224468 166.57469913 -49.52660179 166.40188789 C-59.83244303 163.83287297 -70.09447503 161.12834191 -80.32641602 158.27929688 C-84.48201249 157.12702785 -88.65637901 156.06289692 -92.8417511 155.02444458 C-100.64055824 153.07305602 -107.88388176 150.83531048 -115 147 C-115.8353125 146.57203125 -116.670625 146.1440625 -117.53125 145.703125 C-129.2257709 139.27835734 -136.8361335 130.30154391 -141.10546875 117.75 C-142.12791754 113.46375178 -142.34503373 109.57444088 -142.3125 105.1875 C-142.30686035 104.39287354 -142.3012207 103.59824707 -142.29541016 102.77954102 C-142.03465345 90.14833122 -137.56584353 81.21383061 -128.5625 72.375 C-108.22039661 54.95194284 -78.33368414 54.35641146 -53.03417969 56.21826172 C-31.31150229 58.50803635 -12.76247771 66.16118678 1.6875 83.0625 C11.09730358 95.83135875 15 111.37263514 15 127 C41.73 127 68.46 127 96 127 C93.41347257 104.58342895 90.88495036 85.72869197 81 66 C80.69723145 65.39317383 80.39446289 64.78634766 80.08251953 64.16113281 C75.24893168 54.67819128 69.1798772 46.79727976 62 39 C61.19691406 38.11441406 60.39382813 37.22882813 59.56640625 36.31640625 C44.58121693 20.54381782 25.036795 10.75271489 5 3 C3.3325828 2.33521275 1.66554914 1.66945373 0 1 C0 0.67 0 0.34 0 0 Z " fill="#00AEEF" transform="translate(330,1440)"/>
<path d="M0 0 C65.34 0 130.68 0 198 0 C195.60150272 1.59899819 193.74141549 2.59306994 191.11328125 3.62890625 C174.85509581 10.16845421 160.52528955 17.81738577 147 29 C146.20207031 29.63292969 145.40414062 30.26585937 144.58203125 30.91796875 C123.61333274 48.32384415 112.05887214 74.90728528 109.2109375 101.55273438 C108.05096367 115.01057896 108.98133073 127.85717842 112 141 C112.25523438 142.17820312 112.51046875 143.35640625 112.7734375 144.5703125 C116.21264767 158.42181035 123.32601948 171.51544916 133 182 C133.82113281 182.90105469 134.64226562 183.80210937 135.48828125 184.73046875 C157.17655343 207.4858918 186.61399825 216.71864837 216.25 224.1875 C218.43986907 224.74819827 220.62948013 225.30990511 222.81884766 225.87255859 C232.67127052 228.39931723 242.53374514 230.88569504 252.3999939 233.35784912 C271.73211292 238.20303543 291.03025605 243.09130603 310.125 248.8125 C310.85176941 249.02561829 311.57853882 249.23873657 312.32733154 249.45831299 C327.15420309 253.83063974 343.2034685 259.78734343 351.00805664 274.04711914 C357.64974773 287.10893715 359.24825862 301.83281611 355 316 C348.5893054 332.08137311 338.16659753 342.97083168 322.4375 350.1875 C310.02643339 355.26598896 296.5151926 358.11775007 283.109375 358.203125 C282.37135651 358.21018463 281.63333801 358.21724426 280.87295532 358.22451782 C249.91501914 358.45333011 218.9941081 356.11456963 195 334 C181.05784002 320.21627366 174.17365118 303.35079705 172 284 C172 279.71 172 275.42 172 271 C145.93 271 119.86 271 93 271 C93.75950993 287.96352939 93.75950993 287.96352939 96.125 304.5625 C96.45213989 306.27336792 96.45213989 306.27336792 96.78588867 308.01879883 C98.83129231 318.13348687 101.82550654 327.57274662 106 337 C106.30808594 337.70157227 106.61617188 338.40314453 106.93359375 339.12597656 C121.6765974 372.02245047 149.60817621 395.88506435 183.00537109 408.77392578 C186.97843253 410.25823031 190.97742118 411.65500831 195 413 C195 413.33 195 413.66 195 414 C130.65 414 66.3 414 0 414 C0 277.38 0 140.76 0 0 Z " fill="#00AEEF" transform="translate(0,1440)"/>
<path d="M0 0 C82.83 0 165.66 0 251 0 C251 136.62 251 273.24 251 414 C221.3 414 191.6 414 161 414 C154.58225623 398.24735619 148.19142829 382.52318668 142.08053589 366.65518188 C140.04873668 361.37998995 138.00810488 356.10821198 135.96875 350.8359375 C135.55382797 349.76267715 135.13890594 348.68941681 134.71141052 347.58363342 C130.48202239 336.64872125 126.21408498 325.72902425 121.9375 314.8125 C121.56932159 313.87245117 121.20114319 312.93240234 120.82180786 311.96386719 C118.96258161 307.21693249 117.10282184 302.47020714 115.24267578 297.72363281 C111.45036467 288.04613005 107.66270885 278.36680477 103.875 268.6875 C103.50110138 267.73208313 103.12720276 266.77666626 102.74197388 265.79229736 C94.48674184 244.69710642 86.25236665 223.59379519 78.02075195 202.48937988 C75.72243862 196.59698099 73.42389109 190.70467351 71.125 184.8125 C70.79804138 183.97447845 70.47108276 183.13645691 70.13421631 182.27304077 C64.76481929 168.51196227 59.38432442 154.75524383 54 141 C48.28447197 126.39863583 42.57437751 111.79517631 36.875 97.1875 C36.54954193 96.353396 36.22408386 95.51929199 35.88876343 94.65991211 C32.56861166 86.15060054 29.2496148 77.64083951 25.93231201 69.13041687 C24.56393567 65.62017678 23.19509716 62.11011699 21.82623291 58.60006714 C20.82490899 56.03182714 19.82431193 53.46330472 18.82373047 50.89477539 C15.61028961 42.65114802 12.37779471 34.41575801 9.10546875 26.1953125 C8.49043827 24.6471514 7.8754471 23.09897469 7.26049805 21.55078125 C6.11533223 18.66824842 4.96354519 15.78848562 3.80786133 12.91015625 C3.29874833 11.63030479 2.78986379 10.35036242 2.28125 9.0703125 C1.83845703 7.96445801 1.39566406 6.85860352 0.93945312 5.71923828 C0 3 0 3 0 0 Z " fill="#00AEEF" transform="translate(1672,1440)"/>
<path d="M0 0 C82.5 0 165 0 250 0 C249.19067681 4.85593914 248.07501495 8.79911281 246.25390625 13.28125 C245.83050964 14.34482475 245.83050964 14.34482475 245.39855957 15.42988586 C244.78312122 16.9740383 244.16498325 18.51711689 243.54446411 20.05923462 C242.18886335 23.42870949 240.84671032 26.80349369 239.50352478 30.17793274 C238.78500777 31.98263298 238.06580579 33.78706065 237.34596252 35.5912323 C233.20300604 45.97935625 229.13232475 56.39556003 225.0625 66.8125 C224.2984773 68.76654211 223.53439834 70.72056222 222.77026367 72.67456055 C215.16992569 92.11237108 207.58404897 111.55582958 200 131 C197.37529539 137.72928193 194.75039268 144.45848649 192.125 151.1875 C191.79804138 152.02552155 191.47108276 152.86354309 191.13421631 153.72695923 C185.38489388 168.46173803 179.6223616 183.19132988 173.85705566 197.91986084 C168.52265766 211.5479953 163.19437991 225.17849641 157.875 238.8125 C157.54788025 239.65092438 157.2207605 240.48934875 156.88372803 241.35317993 C154.5888379 247.23533077 152.29436721 253.11764518 150 259 C147.37529539 265.72928193 144.75039268 272.45848649 142.125 279.1875 C141.79804138 280.02552155 141.47108276 280.86354309 141.13421631 281.72695923 C136.14420712 294.51571521 131.14505419 307.3008766 126.14129639 320.08425903 C119.92281652 335.97099688 113.70597064 351.85837067 107.5 367.75 C107.168862 368.59763916 106.837724 369.44527832 106.49655151 370.31860352 C103.24783601 378.63631162 100.00725405 386.95677001 96.81640625 395.296875 C96.34460937 396.52954102 95.8728125 397.76220703 95.38671875 399.03222656 C94.53114973 401.27273216 93.67810589 403.51420441 92.828125 405.75683594 C92.46332031 406.71364258 92.09851562 407.67044922 91.72265625 408.65625 C91.41078369 409.47931641 91.09891113 410.30238281 90.77758789 411.15039062 C90 413 90 413 89 414 C59.63 414 30.26 414 0 414 C0 277.38 0 140.76 0 0 Z " fill="#00AEEF" transform="translate(1338,1440)"/>
<path d="M0 0 C82.5 0 165 0 250 0 C250 136.62 250 273.24 250 414 C220.63 414 191.26 414 161 414 C158.2775 406.966875 155.555 399.93375 152.75 392.6875 C144.97489603 372.62142488 137.14374804 352.57788673 129.27880859 332.546875 C128.4449744 330.42318202 127.61115267 328.29948415 126.77734375 326.17578125 C126.37100708 325.14087555 125.96467041 324.10596985 125.54602051 323.03970337 C121.64225695 313.09419946 117.75618207 303.14183402 113.875 293.1875 C108.26016481 278.78767716 102.63411263 264.39229155 97 250 C91.28437018 235.39867593 85.57427854 220.79521468 79.875 206.1875 C79.38432037 204.92986343 79.38432037 204.92986343 78.88372803 203.64682007 C76.26234749 196.92782487 73.64153518 190.20860808 71.02075195 183.48937988 C68.72243862 177.59698099 66.42389109 171.70467351 64.125 165.8125 C63.79804138 164.97447845 63.47108276 164.13645691 63.13421631 163.27304077 C57.76481929 149.51196227 52.38432442 135.75524383 47 122 C41.28447195 107.39863579 35.57440908 92.79516402 29.875 78.1875 C29.55186829 77.35937805 29.22873657 76.5312561 28.89581299 75.67803955 C25.51332606 67.00921299 22.13222658 58.33984688 18.75314331 49.66969299 C17.30829112 45.96273441 15.86294469 42.25596863 14.4175415 38.54922485 C13.73609875 36.80125497 13.05489554 35.05319167 12.3739624 33.30502319 C11.42438887 30.86717633 10.47407579 28.42961933 9.5234375 25.9921875 C9.22581512 25.22830215 8.92819275 24.46441681 8.62155151 23.67738342 C7.17140547 19.96398357 5.70562541 16.25800999 4.20800781 12.56347656 C3.92631744 11.86739288 3.64462708 11.1713092 3.35440063 10.45413208 C2.590647 8.57240572 1.82210711 6.69262399 1.05322266 4.81298828 C0 2 0 2 0 0 Z " fill="#00AEEF" transform="translate(747,1440)"/>
<path d="M0 0 C82.17 0 164.34 0 249 0 C249 136.62 249 273.24 249 414 C219.96 414 190.92 414 161 414 C148.50349241 383.32675409 148.50349241 383.32675409 143.7906189 370.9303894 C142.22735303 366.82049047 140.6523917 362.71507007 139.078125 358.609375 C138.58357063 357.31905617 138.58357063 357.31905617 138.07902527 356.00267029 C134.16202426 345.79599526 130.17646579 335.61621805 126.1875 325.4375 C125.62459763 324.00083984 125.62459763 324.00083984 125.05032349 322.53515625 C123.13662877 317.65141673 121.22211577 312.7679986 119.30712891 307.88476562 C115.49162128 298.15422245 111.68353413 288.42077416 107.875 278.6875 C107.50146393 277.7329895 107.12792786 276.778479 106.74307251 275.79504395 C98.48746435 254.69894131 90.25272497 233.59471384 82.02075195 212.48937988 C79.72243862 206.59698099 77.42389109 200.70467351 75.125 194.8125 C74.79804138 193.97447845 74.47108276 193.13645691 74.13421631 192.27304077 C68.38423684 177.53657808 62.62119461 162.80524428 56.8550415 148.07510376 C51.88939583 135.38961095 46.92966279 122.70183905 41.97921753 110.01040649 C36.35272258 95.58583888 30.72263167 81.16267984 25.08343506 66.74307251 C24.32380897 64.80043245 23.56440694 62.85770476 22.80523682 60.91488647 C18.74118628 50.51510174 14.65915149 40.12307144 10.52734375 29.75 C9.81970418 27.97031159 9.11210241 26.19060816 8.40454102 24.41088867 C7.08133707 21.08320269 5.75145538 17.75829304 4.41772461 14.43481445 C3.82772053 12.95273292 3.2379443 11.47056065 2.6484375 9.98828125 C2.37752792 9.31873413 2.10661835 8.64918701 1.82749939 7.95935059 C0.70931737 5.13352312 0 3.07174872 0 0 Z " fill="#00AEEF" transform="translate(2564,1440)"/>
<path d="M0 0 C33.66 0 67.32 0 102 0 C102 136.62 102 273.24 102 414 C68.34 414 34.68 414 0 414 C0 277.38 0 140.76 0 0 Z " fill="#00AEEF" transform="translate(3155,1440)"/>
<path d="M0 0 C59.73 0 119.46 0 181 0 C181 60.72 181 121.44 181 184 C121.27 184 61.54 184 0 184 C0 123.28 0 62.56 0 0 Z " fill="#00AEEF" transform="translate(1077,1670)"/>
<path d="M0 0 C59.73 0 119.46 0 181 0 C181 53.46 181 106.92 181 162 C121.27 162 61.54 162 0 162 C0 108.54 0 55.08 0 0 Z " fill="#00AEEF" transform="translate(1077,1440)"/>
<path d="M0 0 C76.56 0 153.12 0 232 0 C232 97.02 232 194.04 232 294 C229.04949734 291.04949734 227.25588318 289.09575542 225.1875 285.68359375 C224.67566162 284.84683105 224.16382324 284.01006836 223.63647461 283.14794922 C223.09643799 282.25350098 222.55640137 281.35905273 222 280.4375 C220.83539757 278.53208604 219.67001671 276.62714767 218.50390625 274.72265625 C217.91754395 273.76246582 217.33118164 272.80227539 216.72705078 271.81298828 C214.16724694 267.64362727 211.55671979 263.5072095 208.9375 259.375 C208.44701172 258.60019287 207.95652344 257.82538574 207.45117188 257.02709961 C206.46238042 255.46546528 205.47328662 253.90402235 204.48388672 252.34277344 C201.98516411 248.39776815 199.49288859 244.44869342 197 240.5 C194.03705495 235.80739018 191.07341193 231.11523191 188.10546875 226.42578125 C181.89503034 216.60928182 175.72533029 206.76802588 169.57373047 196.91455078 C164.22839607 188.35626365 158.84790557 179.82068397 153.45166016 171.29443359 C150.96526467 167.36454042 148.48287225 163.43211968 146 159.5 C145.00001836 157.91665507 144.00001838 156.33332172 143 154.75 C141 151.58333333 139 148.41666667 137 145.25 C136.5052417 144.46665283 136.0104834 143.68330566 135.50073242 142.8762207 C134.49821757 141.28886474 133.49577646 139.70146221 132.4934082 138.11401367 C130.03248037 134.21684605 127.57038288 130.32042899 125.10546875 126.42578125 C118.89503034 116.60928182 112.72533029 106.76802588 106.57373047 96.91455078 C101.22839607 88.35626365 95.84790557 79.82068397 90.45166016 71.29443359 C87.46210152 66.5692617 84.47794384 61.8406762 81.49267578 57.11279297 C79.03195635 53.21605486 76.57012917 49.32002812 74.10546875 45.42578125 C68.35786416 36.34107559 62.63713679 27.23988716 56.9375 18.125 C55.97203247 16.58162964 55.97203247 16.58162964 54.98706055 15.00708008 C54.381604 14.03794678 53.77614746 13.06881348 53.15234375 12.0703125 C52.61601318 11.21195801 52.07968262 10.35360352 51.52709961 9.46923828 C50 7 50 7 48.96386719 4.22729492 C46.57820133 1.52162242 45.84320823 1.60345658 42.3449707 1.34057617 C40.37227372 1.29938571 38.39889334 1.28530563 36.42578125 1.29296875 C35.38681198 1.27784744 34.34784271 1.26272614 33.27738953 1.24714661 C29.95554144 1.20412286 26.63459945 1.19541719 23.3125 1.1875 C21.06182462 1.1643672 18.81117097 1.13900443 16.56054688 1.11132812 C11.04035614 1.04833115 5.52052159 1.01351325 0 1 C0 0.67 0 0.34 0 0 Z " fill="#00AEEF" transform="translate(2847,1440)"/>
<path d="M0 0 C2.58945485 3.23681857 4.84828246 6.17644722 7.03125 9.6328125 C7.58828613 10.51155029 8.14532227 11.39028809 8.71923828 12.2956543 C9.30688965 13.22933838 9.89454102 14.16302246 10.5 15.125 C11.42594971 16.58836792 11.42594971 16.58836792 12.37060547 18.08129883 C14.24980643 21.05248094 16.12508232 24.02611372 18 27 C19.0544 28.66815051 20.10906943 30.33613076 21.1640625 32.00390625 C23.62277372 35.89204468 26.0780977 39.78230787 28.53222656 43.67333984 C31.01983357 47.61660245 33.51006414 51.55820768 36 55.5 C37.00001224 57.0833256 38.00001225 58.66665893 39 60.25 C39.495 61.03375 39.99 61.8175 40.5 62.625 C78 122 115.5 181.375 153 240.75 C153.49516113 241.5339917 153.99032227 242.3179834 154.50048828 243.12573242 C155.49890968 244.7065934 156.4972822 246.28748525 157.49560547 247.8684082 C160.01935492 251.86482516 162.54399298 255.86067588 165.0703125 259.85546875 C165.57530273 260.6561377 166.08029297 261.45680664 166.60058594 262.28173828 C167.60980754 263.87444644 168.62600483 265.46275764 169.64941406 267.04638672 C172.10038592 270.8601628 174.38209563 274.66019996 176.4140625 278.71484375 C179.84121311 286.0477913 179.84121311 286.0477913 185.99121094 290.77246094 C190.70890997 291.71768489 195.24077052 291.51961811 200 291 C200 291.33 200 291.66 200 292 C134 292 68 292 0 292 C0 195.64 0 99.28 0 0 Z " fill="#00AEEF" transform="translate(2889,1562)"/>
<path d="M0 0 C52.8 0 105.6 0 160 0 C164.49968038 11.24920094 164.49968038 11.24920094 166.06787109 15.65698242 C166.42325958 16.65281342 166.77864807 17.64864441 167.14480591 18.6746521 C167.51725433 19.72432159 167.88970276 20.77399109 168.2734375 21.85546875 C168.67432587 22.980065 169.07521423 24.10466125 169.48825073 25.26333618 C170.78568724 28.90406713 172.08046179 32.54573759 173.375 36.1875 C174.9436791 40.59515583 176.51303426 45.00257044 178.082901 49.40980339 C178.53317333 50.67398971 178.98335835 51.93820714 179.43345642 53.20245552 C182.40999108 61.56236193 185.40670697 69.91459333 188.4296875 78.2578125 C189.08806043 80.07787831 189.74642657 81.89794658 190.40478516 83.71801758 C191.31988807 86.24714828 192.23655599 88.7756507 193.15838623 91.30233765 C193.98988671 93.58161054 194.81581173 95.86283175 195.640625 98.14453125 C195.88336151 98.8043399 196.12609802 99.46414856 196.37619019 100.14395142 C197.37538758 102.92215429 198 105.01866344 198 108 C120.12 108 42.24 108 -38 108 C-34.62468391 96.74894637 -34.62468391 96.74894637 -32.84619141 91.74462891 C-32.24878647 90.05812729 -32.24878647 90.05812729 -31.63931274 88.33755493 C-31.00187637 86.55011368 -31.00187637 86.55011368 -30.3515625 84.7265625 C-29.89356172 83.43710837 -29.435752 82.14758637 -28.9781189 80.85800171 C-28.01636764 78.14942896 -27.05302063 75.44143136 -26.08837891 72.73388672 C-24.66140488 68.72859508 -23.23876562 64.72177655 -21.81640625 60.71484375 C-14.61263885 40.4511514 -7.30461468 20.22816373 0 0 Z " fill="#00AEEF" transform="translate(2441,1746)"/>
<path d="M0 0 C52.8 0 105.6 0 160 0 C168.02712745 20.64118488 168.02712745 20.64118488 171.41796875 30.41015625 C171.79783936 31.49535553 172.17770996 32.58055481 172.5690918 33.69863892 C173.777824 37.15235789 174.98267238 40.60741724 176.1875 44.0625 C177.86212982 48.8524239 179.53953563 53.64136898 181.21875 58.4296875 C181.62884811 59.5992247 182.03894623 60.7687619 182.46147156 61.97373962 C184.90146743 68.91726181 187.37591925 75.84669815 189.90625 82.7578125 C190.19365555 83.54286667 190.4810611 84.32792084 190.7771759 85.13676453 C192.07555158 88.67586811 193.38212899 92.21175034 194.69799805 95.74438477 C195.14183838 96.94635498 195.58567871 98.1483252 196.04296875 99.38671875 C196.42477295 100.40983154 196.80657715 101.43294434 197.19995117 102.48706055 C198 105 198 105 198 108 C120.12 108 42.24 108 -38 108 C-34.62433074 96.74776915 -34.62433074 96.74776915 -33.27685547 92.92895508 C-32.81894119 91.62605278 -32.81894119 91.62605278 -32.35177612 90.29682922 C-32.02686188 89.38032089 -31.70194763 88.46381256 -31.3671875 87.51953125 C-31.01222198 86.51315109 -30.65725647 85.50677094 -30.29153442 84.46989441 C-29.53452547 82.32547436 -28.77635335 80.18146462 -28.01708984 78.0378418 C-26.92372934 74.95011507 -25.83454815 71.86094334 -24.74609375 68.77148438 C-16.6268452 45.79978029 -8.2878022 22.91333548 0 0 Z " fill="#00AEEF" transform="translate(1549,1746)"/>
<path d="M0 0 C1.76845984 0.00138269 1.76845984 0.00138269 3.57264614 0.00279331 C4.22686894 0.00193889 4.88109175 0.00108446 5.55513948 0.00020415 C7.7631863 -0.00145245 9.97115836 0.00407361 12.17919827 0.00952244 C13.75568038 0.0098043 15.33216263 0.0096466 16.90864468 0.00907993 C21.20184837 0.00879191 25.49502437 0.01468943 29.7882216 0.02165389 C34.26989971 0.02788661 38.75157838 0.02849116 43.23326015 0.0296793 C51.72598196 0.03279286 60.21869097 0.04100657 68.71140712 0.05102879 C78.37750826 0.06218917 88.04360999 0.06770019 97.70971596 0.07272422 C117.59920876 0.08318917 137.48869001 0.10078908 157.37817287 0.12304783 C157.59247354 0.73336196 157.8067742 1.34367609 158.02756882 1.97248459 C172.42954307 42.99561034 172.42954307 42.99561034 187.06567287 83.93554783 C188.29433787 87.34253195 189.52239053 90.74973064 190.74848843 94.1576395 C191.48703149 96.21036132 192.22699842 98.26257164 192.96867275 100.31416416 C193.2877409 101.20089314 193.60680904 102.08762211 193.93554592 103.00122166 C194.21577099 103.77766529 194.49599606 104.55410892 194.78471279 105.35408115 C195.37817287 107.12304783 195.37817287 107.12304783 195.37817287 108.12304783 C117.16817287 108.12304783 38.95817287 108.12304783 -41.62182713 108.12304783 C-35.19966771 89.49878553 -28.73084355 70.90702359 -22.05932713 52.37304783 C-21.26554076 50.16347225 -20.4719211 47.95383677 -19.67846775 45.74414158 C-18.1146858 41.38985401 -16.54850157 37.03644142 -14.98071384 32.6835947 C-13.33398316 28.10950578 -11.69638969 23.53225261 -10.06372166 18.95312595 C-9.44268307 17.21576176 -9.44268307 17.21576176 -8.80909824 15.44329929 C-8.01366197 13.21774452 -7.22039618 10.99141253 -6.42955112 8.76422215 C-6.07542652 7.77500767 -5.72130192 6.78579319 -5.35644627 5.76660252 C-5.04469959 4.89155064 -4.73295292 4.01649876 -4.41175938 3.11493015 C-3.25980718 0.21018331 -3.23312718 0.15173742 0 0 Z " fill="#00AEEF" transform="translate(627.6218271255493,1745.8769521713257)"/>
<path d="M0 0 C17.799375 -0.04125 35.59875 -0.0825 53.9375 -0.125 C59.52550537 -0.14320801 65.11351074 -0.16141602 70.87084961 -0.18017578 C77.77648926 -0.18920898 77.77648926 -0.18920898 81.02516174 -0.19088745 C83.25942281 -0.19392748 85.49368093 -0.20089566 87.72792053 -0.21115112 C136.73280241 -0.42454158 136.73280241 -0.42454158 155.20703125 15.95703125 C168.6352943 29.79610158 171.50808327 47.15726445 171.42211914 65.61499023 C171.04957255 81.9056588 166.87603525 96.67855956 155.4453125 108.8046875 C134.94568136 127.2085097 108.88409265 128.47661881 82.71484375 128.29296875 C80.5876082 128.2885458 78.46036936 128.28549274 76.33312988 128.28381348 C68.53453609 128.268225 60.73601265 128.22634189 52.9375 128.1875 C26.7334375 128.0946875 26.7334375 128.0946875 0 128 C0 85.76 0 43.52 0 0 Z " fill="#01AEEF" transform="translate(2003,1505)"/>
<path d="M0 0 C1.91542088 2.87313132 2.90039608 5.22837546 4.03686523 8.46630859 C4.43658539 9.59836731 4.83630554 10.73042603 5.24813843 11.89678955 C5.68058868 13.13483337 6.11303894 14.3728772 6.55859375 15.6484375 C7.01893888 16.95641901 7.47969229 18.26425689 7.94082642 19.57196045 C8.92768103 22.37272051 9.91208164 25.17432597 10.89456177 27.97662354 C13.23638539 34.65535266 15.59128742 41.32947476 17.94486046 48.00407028 C18.74570301 50.27559647 19.5460682 52.54729046 20.34638977 54.81900024 C25.2046884 68.60459168 30.12171971 82.36874628 35.0625 96.125 C35.83626348 98.28076156 36.6100265 100.43652327 37.38378906 102.59228516 C40.66514799 111.73124388 43.95206206 120.86819969 47.24153137 130.00424194 C48.57926037 133.72017097 49.91599115 137.43645872 51.25265503 141.152771 C52.16393229 143.68452312 53.07711731 146.21558111 53.99047852 148.74658203 C54.52888665 150.24248493 55.06722159 151.73841417 55.60546875 153.234375 C55.85128693 153.91376129 56.0971051 154.59314758 56.35037231 155.29312134 C58 159.88627201 58 159.88627201 58 161 C20.05 161 -17.9 161 -57 161 C-56.33326522 156.99959129 -55.79055155 154.01703743 -54.4597168 150.34228516 C-54.14316132 149.46017365 -53.82660583 148.57806213 -53.50045776 147.66921997 C-53.15354889 146.71876801 -52.80664001 145.76831604 -52.44921875 144.7890625 C-52.08345734 143.77391571 -51.71769592 142.75876892 -51.34085083 141.71286011 C-50.12764366 138.34856829 -48.90745486 134.98685019 -47.6875 131.625 C-46.83037695 129.25086626 -45.97386087 126.8765133 -45.11791992 124.50195312 C-43.77869591 120.78700758 -42.43928058 117.07213398 -41.09754944 113.35809326 C-36.72446309 101.25174446 -32.3903546 89.13157312 -28.06451416 77.00827026 C-26.81578783 73.50921283 -25.56596992 70.01054693 -24.31591797 66.51196289 C-20.26858323 55.18120858 -16.23332268 43.84631193 -12.21875 32.50390625 C-11.46641048 30.38020107 -10.71405094 28.25650298 -9.96166992 26.1328125 C-8.55753067 22.16911133 -7.15719239 18.20409522 -5.7590332 14.23828125 C-5.13766412 12.48302633 -4.51617122 10.72781524 -3.89453125 8.97265625 C-3.61327393 8.17146866 -3.3320166 7.37028107 -3.04223633 6.54481506 C-1.11364313 1.11364313 -1.11364313 1.11364313 0 0 Z " fill="#00AEEF" transform="translate(1629,1524)"/>
<path d="M0 0 C2.31875022 2.31875022 2.86230527 3.99398723 3.94506836 7.07739258 C4.32477783 8.14949478 4.7044873 9.22159698 5.09570312 10.32618713 C5.71155273 12.09251747 5.71155273 12.09251747 6.33984375 13.89453125 C7.00530386 15.78011741 7.67076591 17.66570288 8.33630562 19.55126095 C9.04859566 21.57269623 9.75807956 23.59509669 10.46676636 25.61779785 C11.94737959 29.84328099 13.43580292 34.06598354 14.92602539 38.28808594 C15.43144311 39.72018403 15.93685998 41.15228242 16.442276 42.5843811 C16.69364885 43.29659443 16.94502171 44.00880775 17.20401192 44.7426033 C17.97289623 46.92190822 18.74104406 49.10147152 19.50901794 51.28109741 C23.88539803 63.69860332 28.31387257 76.09698609 32.76550293 88.48773193 C33.93216189 91.73514131 35.09761208 94.98298203 36.26269531 98.23095703 C39.26417718 106.59750594 42.26728755 114.96346586 45.27539062 123.32763672 C47.08015409 128.34603801 48.88204199 133.36546298 50.68191528 138.38562012 C51.34632374 140.23687409 52.01189096 142.08771264 52.67868042 143.93811035 C53.58421792 146.45121471 54.48593429 148.9656576 55.38671875 151.48046875 C55.65442078 152.22034531 55.9221228 152.96022186 56.19793701 153.72251892 C58 158.77196602 58 158.77196602 58 161 C20.05 161 -17.9 161 -57 161 C-53.62475958 149.74919858 -53.62475958 149.74919858 -51.94140625 145.0144043 C-51.56178238 143.94293655 -51.18215851 142.87146881 -50.79103088 141.76753235 C-50.38561569 140.63123886 -49.9802005 139.49494537 -49.5625 138.32421875 C-49.12997421 137.10594894 -48.69744843 135.88767914 -48.2518158 134.63249207 C-47.08089068 131.3349181 -45.90682944 128.03846915 -44.73203659 124.74227142 C-43.74643208 121.975754 -42.7626015 119.20860706 -41.77873516 116.4414711 C-27.96341661 77.58791776 -14.03648252 38.77419796 0 0 Z " fill="#00AEEF" transform="translate(704,1524)"/>
<path d="M0 0 C1.86624032 2.79936048 2.83738337 5.04401665 3.94506836 8.19091797 C4.32477783 9.26294464 4.7044873 10.33497131 5.09570312 11.43948364 C5.71155273 13.19807205 5.71155273 13.19807205 6.33984375 14.9921875 C7.00530328 16.87560172 7.6707648 18.75901524 8.33630562 20.64240074 C9.04799401 22.65880929 9.75766451 24.6759178 10.46676636 26.6932373 C11.94889035 30.90931683 13.43673752 35.12336049 14.92602539 39.33691406 C15.17572051 40.04337318 15.42541563 40.74983231 15.68267727 41.47769928 C16.18976364 42.91231664 16.69687526 44.34692508 17.20401192 45.78152466 C17.97270988 47.95651677 18.74090345 50.13168654 19.50901794 52.30688477 C24.27623239 65.80312833 29.09906175 79.27912471 33.9375 92.75 C34.71263207 94.90964393 35.48769769 97.06931172 36.26269531 99.22900391 C37.76799552 103.42358652 39.27355905 107.61807447 40.77929688 111.8125 C44.08436159 121.02035055 47.38640915 130.22927552 50.68191528 139.44055176 C51.34690561 141.29843194 52.01248427 143.15610166 52.67868042 145.0135498 C53.5828209 147.53455476 54.48502959 150.05624245 55.38671875 152.578125 C55.65442078 153.32316284 55.9221228 154.06820068 56.19793701 154.83581543 C58 159.88583016 58 159.88583016 58 161 C20.05 161 -17.9 161 -57 161 C-53.62489709 148.62462265 -53.62489709 148.62462265 -51.94140625 143.90087891 C-51.371978 142.29381325 -51.371978 142.29381325 -50.79104614 140.65428162 C-50.38562592 139.52313431 -49.98020569 138.391987 -49.5625 137.2265625 C-49.12992889 136.00957169 -48.69735779 134.79258087 -48.25167847 133.53871155 C-47.08212101 130.24880506 -45.90752803 126.96071816 -44.73183441 123.67300034 C-43.49569664 120.21373343 -42.26406022 116.75286396 -41.03173828 113.29223633 C-38.26699171 105.53145347 -35.49465962 97.7733923 -32.72071838 90.01589203 C-31.57983268 86.82476709 -30.43987727 83.63331006 -29.29980469 80.44189453 C-21.53678315 58.71582304 -13.74809336 36.99895867 -5.875 15.3125 C-5.62393494 14.62006195 -5.37286987 13.9276239 -5.11419678 13.21420288 C-4.42908817 11.32588915 -3.74195521 9.43831023 -3.0546875 7.55078125 C-2.67812012 6.51606689 -2.30155273 5.48135254 -1.91357422 4.4152832 C-1 2 -1 2 0 0 Z " fill="#00AEEF" transform="translate(2521,1524)"/>
</svg>
