<?xml version="1.0" encoding="utf-8"?>
<!-- Generator: Adobe Adobe Illustrator 24.2.0, SVG Export Plug-In . SVG Version: 6.00 Build 0)  -->
<svg version="1.1" xmlns="http://www.w3.org/2000/svg" xmlns:xlink="http://www.w3.org/1999/xlink" x="0px" y="0px" width="4060px"
	 height="3660px" viewBox="0 0 4060 3660" style="enable-background:new 0 0 4060 3660;" xml:space="preserve">
<style type="text/css">
	.st0{display:none;}
	.st1{display:inline;fill:none;}
	.st2{fill:#FEFEFE;}
	.st3{fill:#114374;}
	.st4{fill:#00AEEF;}
	.st5{fill:#01AEEF;}
</style>
<g id="Layer_2" class="st0">
	<rect x="2311.1" y="1127.5" class="st1" width="410" height="940"/>
</g>
<g id="Layer_1">
	<g>
		<path class="st2" d="M395,2464.5c5.4,1.4,10.1,1.6,15.6,1.5c1.1,0,2.1,0,3.2,0c3.6,0,7.1,0,10.7,0c2.6,0,5.2,0,7.8,0
			c7.2,0,14.3,0,21.5,0c7.8,0,15.6,0,23.4,0c13.7,0,27.5,0,41.2,0c14.8,0,29.6,0,44.4,0c0.9,0,1.9,0,2.8,0c4.8,0,9.6,0,14.4,0
			c35,0,70,0,105.1,0c35.5,0,71,0,106.5,0c1.7,0,1.7,0,3.4,0c10.3,0,20.5,0,30.8,0c25.7,0,51.4,0,77.1,0c1.2,0,2.4,0,3.6,0
			c58.1,0,116.2,0,174.4,0c20.5,0,40.9,0,61.4,0c1.3,0,2.5,0,3.9,0c58.9,0,117.8,0,176.7,0c3.9,0,7.7,0,11.6,0c23.2,0,46.5,0,69.7,0
			c57.7,0,115.5,0,173.2,0.1c2,0,2,0,4,0c85.2,0,170.3,0,255.5,0.1c1.4,0,2.7,0,4.1,0c41.4,0,82.8,0,124.2,0c45.8,0,91.6,0,137.4,0
			c2.1,0,2.1,0,4.2,0c130.8,0,261.6,0.1,392.4,0.1c5.5,0,11.1,0,16.6,0c51,0,102,0,152.9,0c1.4,0,2.7,0,4.1,0c4.1,0,8.2,0,12.3,0
			c110.9,0,221.8,0.1,332.7,0.1c3.9,0,7.8,0,11.7,0c127.1,0,254.2,0.1,705,0.2c1.1,0,2.2,0,3.3,0c32.6,0,65.1,0,97.7,0
			c3.8,0,7.5,0,11.2,0c74.9,0,149.8,0,224.6,0c0,171.2,0,342.5,0,518.9c-45.8,0-91.5,0-138.7,0c-43.7,0-43.7,0-87.4,0
			c-3.9,0-7.8,0-11.8,0c-32.5,0-65,0-97.5,0c-1.6,0-1.6,0-3.3,0c-117.7,0-235.4,0-702.4,0.1c-3.9,0-7.8,0-11.7,0
			c-110.5,0-221,0-331.5,0.1c-4.1,0-8.2,0-12.3,0c-1.4,0-2.7,0-4.1,0c-50.8,0-101.6,0-152.4,0c-5.5,0-11,0-16.6,0
			c-130.2,0-260.5,0-390.7,0c-1.4,0-2.7,0-4.2,0c-45.6,0-91.2,0-136.8,0c-41.2,0-82.4,0-123.6,0c-2,0-2,0-4.1,0
			c-84.7,0-169.5,0-254.2,0c-2,0-2,0-4,0c-57.5,0-115,0-172.4,0c-23.1,0-46.3,0-69.4,0c-3.8,0-7.7,0-11.5,0c-58.7,0-117.3,0-176,0
			c-1.9,0-1.9,0-3.8,0c-20.4,0-40.7,0-61.1,0c-57.8,0-115.5,0-173.3,0c-1.2,0-2.3,0-3.6,0c-25.6,0-51.2,0-76.7,0
			c-10.2,0-20.4,0-30.6,0c-1.7,0-1.7,0-3.4,0c-35.3,0-70.6,0-105.9,0c-34.8,0-69.5,0-104.3,0c-4.8,0-9.5,0-14.3,0
			c-1.4,0-1.4,0-2.8,0c-14.7,0-29.4,0-44.1,0c-14.4,0-28.8,0-43.1,0c-7.7,0-15.3,0-22.9,0c-7,0-13.9,0-20.9,0c-2.5,0-5,0-7.4,0
			c-15.1-0.1-28.7,1.6-43.4,5.5c-22,5.9-44.9,6.9-67.6,6.9c-1,0-2.1,0-3.2,0c-29.1,0-59.1-2.3-86.9-11.6
			c-122.2-0.6-122.2-0.6-246.9-1.3c0-171.2,0-342.5,0-518.9c124.1-0.6,124.1-0.6,250.7-1.3c11.8-3.1,11.8-3.1,23.8-6.3
			c4.4-0.8,8.6-1.6,13-2.2c1-0.1,2.1-0.3,3.2-0.4c3-0.4,5.9-0.8,8.9-1.1c1.4-0.2,2.8-0.3,4.2-0.5C325.9,2452,363,2454.1,395,2464.5z
			"/>
		<path class="st3" d="M1024.1,714.7c1.2,0.6,2.4,1.1,3.7,1.7c25.6,12.1,50.1,26.3,72.8,43.4c1.3,1,2.6,2,4,3
			c15.5,11.7,30.6,24,44.9,37.1c2.1,1.9,4.2,3.7,6.3,5.6c9.8,8.9,19,18.2,27.6,28.3c1,1.1,2,2.2,3,3.4
			c77.2,88.7,106.1,204.6,106.1,320c-117.1,0-234.1,0-354.7,0c-0.4-8.3-0.8-16.5-1.3-25.1c-0.4-4.3-0.9-8.5-1.6-12.8
			c-0.2-1-0.3-2-0.5-3.1c-6.4-38.6-25.6-75.2-57.7-98.4c-32.5-22.7-68-35.7-106.9-42.5c-0.9-0.2-1.9-0.3-2.8-0.5
			c-56.8-9.6-122.5,0.8-170.5,33.4c-2.9,2.3-5.7,4.7-8.4,7.2c-1.2,1-1.2,1-2.4,2.1c-6.4,5.9-10.8,13-15.2,20.5
			c-0.6,0.9-1.1,1.9-1.7,2.8c-13,23.3-16.5,57.4-10.2,83.1c4.5,15.3,12.5,28.9,23.2,40.7c0.9,1,1.8,2,2.8,3.1
			c5.8,6.2,12.1,11.5,18.9,16.6c1.1,0.8,1.1,0.8,2.1,1.6c13,9.4,27.9,15.2,43,20c1.7,0.5,3.4,1.1,5.1,1.7c4.5,1.5,9,2.9,13.4,4.3
			c4.7,1.5,9.5,3.1,14.2,4.6c22.5,7.3,45.1,14.5,67.6,21.7c27.5,8.7,54.9,17.8,82.3,26.8c23.6,7.8,47.3,15.5,71,23.1
			c110.2,35,221.9,74.1,308.8,153.5c1.2,1.1,2.4,2.1,3.6,3.2c27.1,24.3,50.1,54,67.8,85.7c0.6,1,1.2,2.1,1.7,3.1
			c36.2,65.6,49.9,138.2,50,212.6c0,2.2,0,2.2,0,4.4c-0.1,114.6-27.3,232.7-101.8,322.6c-1.5,1.8-1.5,1.8-3,3.7
			c-13.7,16.6-28.4,32.3-44.6,46.5c-0.6,0.6-1.3,1.1-1.9,1.7c-80.4,70.5-185.6,107.9-290.1,123.7c-1.6,0.2-3.2,0.5-4.9,0.7
			c-102,14.9-208.8,14.2-437.6-49.6c-2-0.9-3.9-1.8-5.9-2.7c-46.4-21.1-93.3-51.2-128.8-88.1c-2.2-2.2-4.5-4.1-6.8-6.1
			c-4.9-4.3-9.2-8.9-13.5-13.8c-1.9-2.2-3.9-4.3-5.9-6.4c-8.7-9.3-16.4-19.2-24-29.4c-1.7-2.3-3.4-4.5-5.1-6.7
			c-71.4-96.4-93.4-218.2-93.4-335.5c115.4,0,230.8,0,349.7,0c0.8,14.1,1.7,28.1,2.5,42.6c5.7,44.5,17.3,86.6,46.4,121.6
			c0.9,1.1,1.9,2.2,2.8,3.4c40.4,46.8,106.2,63.5,165.2,68.8c11.6,0.8,23.3,0.8,35,0.8c1.2,0,2.4,0,3.7,0
			c62.6-0.1,128.1-11,175.6-55.5c26.7-27.6,34.7-65.4,34.1-102.7c-1-33.8-19.9-62.3-43.6-85.2c-44.9-41.7-106-66.1-164.4-81.5
			c-57.5-15.3-114.3-32.9-170.8-51.5c-1.2-0.4-2.4-0.8-3.7-1.2c-48-15.8-94.8-33.5-140.5-55.2c-1.4-0.7-2.8-1.3-4.2-2
			c-19.2-9.2-37.7-19.6-55.9-30.6c-1-0.6-1.9-1.2-2.9-1.8c-35.7-21.5-70.7-47.4-97.4-79.7c-0.6-0.7-1.1-1.3-1.7-2
			c-58.9-70.4-92-158.9-92.6-250.9c0-1.5,0-3,0-4.5c-0.7-111.4,24.8-218.8,100.6-304c0.8-0.9,1.6-1.8,2.4-2.7
			c6.9-7.7,14-15.1,21.3-22.4c1.8-1.8,3.7-3.7,5.5-5.6c7.8-7.9,16-15,24.7-21.9c1.3-1.1,2.6-2.2,3.9-3.3
			c91.3-78.5,216.6-113,334.5-120.8c1-0.1,2-0.1,3.1-0.2C795.8,656.5,894.1,666.7,1024.1,714.7z"/>
		<path class="st3" d="M2410.4,718.4c1.3,0.6,2.5,1.2,3.9,1.7c57.3,26.1,110.7,62.1,157.2,104.4c2,1.8,4,3.6,6,5.4
			c7.6,6.7,14.8,13.7,21.9,20.8c1.8,1.8,3.6,3.6,5.4,5.4c6.5,6.5,12.8,13.2,18.7,20.2c1.2,1.3,2.3,2.6,3.5,3.9
			c22.5,25.7,42.3,54.1,59.2,83.8c0.6,1.1,1.2,2.1,1.8,3.2c47.7,84.4,67.1,177.4,67.1,273.8c-116.2,0-232.5,0-352.2,0
			c-3.1-18.6-3.1-18.6-6.3-37.6c-4.5-18-9-35.7-16.3-52.6c-0.6-1.4-0.6-1.4-1.2-2.8c-11.1-25.5-26.3-47-45.2-67.4
			c-1.1-1.2-1.1-1.2-2.2-2.4c-13.9-14.8-31.7-26.2-49.2-36.4c-0.8-0.4-1.5-0.9-2.3-1.3c-65.3-38.1-154.4-44.3-226.5-25.8
			c-52.2,14.1-98.5,42.1-132.2,84.8c-1.4,1.8-1.4,1.8-2.9,3.6c-61.9,77.4-87.2,182.5-95.8,279.5c-0.1,0.8-0.1,1.7-0.2,2.5
			c-2.1,24.5-2.9,49-2.8,73.7c0,1.4,0,2.8,0,4.2c0.2,109.7,18.9,223.5,114.1,363c2.3,2.6,4.6,5.2,6.8,7.9
			c40.9,46.5,104.7,72.8,165.5,77.4c69.8,4.1,145.3-7.4,199.7-55c4-3.6,7.8-7.3,11.7-11.1c0.9-0.8,1.8-1.6,2.7-2.4
			c51.2-47.8,69.3-124.3,79.3-190.7c1.1-7.1,2.2-14.1,3.2-21.2c116.2,0,232.5,0,352.2,0c0,51.5,0,51.5-1.4,67.8c-0.1,1-0.2,2-0.2,3
			c-7,84.5-26.7,168.4-66,243.9c-1.4,2.6-2.7,5.3-4,7.9c-16.2,32-36.5,61.3-59.4,88.9c-1.6,1.9-3.1,3.8-4.7,5.8
			c-11.9,15-25.5,28.6-39,42.2c-0.9,0.9-1.8,1.8-2.8,2.8c-5.8,5.8-11.8,11.2-18,16.5c-1.4,1.3-2.8,2.5-4.2,3.8
			c-12.6,11.2-26,21.4-39.7,31.3c-1.6,1.1-3.1,2.3-4.7,3.4c-88.9,65.2-195.6,98.2-346.3,110.6c-1.6,0-3.3,0.1-4.9,0.1
			c-102.3,1.5-204.7-14.1-365.9-97.9c-0.7-0.5-1.4-0.9-2.2-1.4c-10.1-6.7-19.8-13.7-29.4-21.1c-1.2-0.9-1.2-0.9-2.5-1.9
			c-11.7-8.9-22.8-18.4-33.8-28.2c-0.6-0.6-1.3-1.1-1.9-1.7c-10.1-9-19.7-18.5-29.2-28c-0.6-0.6-1.2-1.2-1.9-1.9
			c-7.2-7.2-14.2-14.5-20.8-22.2c-1.3-1.5-2.6-3-3.9-4.5c-9.1-10.4-17.8-20.9-26.1-31.9c-0.6-0.8-1.2-1.5-1.8-2.3
			c-69.6-90.9-116.6-195.5-168.7-490.3c-0.1-1.1-0.1-2.1-0.2-3.2c-1-20.3-1.4-40.5-1.3-60.8c0-1.5,0-2.9,0-4.4
			c0.2-109.5,14.7-220.4,146.9-511.9c0.6-0.9,1.2-1.7,1.8-2.6c18.4-26.8,38.2-53,60.4-76.9c2.4-2.6,4.7-5.2,7-7.9
			c4.4-5,9-9.8,13.8-14.6c0.8-0.8,1.7-1.7,2.5-2.5c1.7-1.7,3.5-3.5,5.2-5.2c2.6-2.6,5.3-5.3,7.9-7.9c1.7-1.7,3.4-3.4,5.1-5.1
			c0.8-0.8,1.5-1.5,2.3-2.3c5.4-5.4,11.1-10.5,16.9-15.4c1.2-1.1,2.4-2.1,3.7-3.2c12.1-10.4,24.8-19.9,37.7-29.4c1.3-1,1.3-1,2.7-2
			c89.3-66,197.3-98.4,306.9-107c1.7-0.1,1.7-0.1,3.3-0.3C2185.3,655.9,2279.7,668.8,2410.4,718.4z"/>
		<path class="st3" d="M2859.2,742.3c386.3,0,772.7,0,1170.7,0c0,111.7,0,223.4,0,338.4c-134.8,0-269.7,0-408.6,0
			c0,387.6,0,775.2,0,1174.5c-118.7,0-237.4,0-359.7,0c0-387.6,0-775.2,0-1174.5c-132.8,0-265.6,0-402.4,0
			C2859.2,969,2859.2,857.3,2859.2,742.3z"/>
		<path class="st2" d="M395.1,2464.5c4.9,1.3,9,1.5,14,1.6c0.9,0,1.8,0,2.7,0c3,0,6,0,9,0c2.2,0,4.3,0,6.5,0c6,0,11.9,0,17.9,0
			c6.4,0,12.9,0,19.3,0c11.2,0,22.3,0,33.5,0.1c16.1,0,32.2,0.1,48.4,0.1c26.2,0.1,52.3,0.1,78.5,0.1c25.4,0,50.8,0.1,76.2,0.1
			c1.6,0,3.1,0,4.7,0c7.9,0,15.7,0,23.6,0c65.2,0.1,130.4,0.2,195.6,0.3c1.9,4.5,3.7,9.1,5.6,13.7c0.9,2.3,1.9,4.6,2.8,6.9
			c5.3,12.9,10.3,25.8,15.3,38.8c2.5,6.6,5.1,13.2,7.7,19.8c0.5,1.3,1,2.7,1.6,4.1c5.4,13.8,10.8,27.7,16.2,41.5
			c0.9,2.4,1.9,4.8,2.8,7.2c1.4,3.6,2.8,7.1,4.2,10.7c4.7,12,9.4,24,14.1,36c7.1,18.2,14.2,36.4,21.3,54.5
			c7.2,18.3,14.3,36.6,21.5,54.9c0.4,1.1,0.8,2.1,1.2,3.2c3.3,8.4,6.6,16.8,9.9,25.3c2.9,7.4,5.8,14.8,8.6,22.2
			c0.4,1.1,0.8,2.1,1.2,3.2c7.2,18.5,14.4,36.9,21.7,55.4c5.1,12.9,10.1,25.9,15.2,38.8c0.4,1.1,0.9,2.2,1.3,3.3
			c2.1,5.4,4.2,10.7,6.3,16.1c4,10.2,8,20.4,12,30.6c0.8,1.9,1.5,3.9,2.3,5.8c1.4,3.6,2.9,7.2,4.3,10.8c0.6,1.6,1.3,3.2,1.9,4.8
			c0.6,1.4,1.1,2.8,1.7,4.2c1.2,3.4,1.2,3.4,1.2,7.2c-1.5,0-3,0-4.5,0c-66.1,0-132.2,0-198.3,0.1c-1,0-2,0-3,0
			c-21.8,0-43.6,0-65.3,0.1c-10.7,0-21.4,0-32,0c-1.1,0-2.1,0-3.2,0c-34.4,0-68.8,0-103.2,0.1c-35.4,0-70.8,0-106.1,0.1
			c-5,0-10,0-15,0c-1,0-2,0-3,0c-15.8,0-31.6,0-47.4,0c-15.9,0-31.8,0-47.8,0c-8.6,0-17.2,0-25.8,0c-7.9,0-15.8,0-23.7,0
			c-2.8,0-5.7,0-8.5,0c-17.3-0.1-32.7,1.7-49.4,6.3c-5.1,1.3-10.4,2.1-15.6,2.9c-1.4,0.2-1.4,0.2-2.9,0.5c-15.3,2.3-30.6,2.7-46,2.7
			c-1,0-2.1,0-3.2,0c-29.1,0-59.1-2.3-86.9-11.6c-122.2-0.6-122.2-0.6-246.9-1.3c0-171.2,0-342.5,0-518.9
			c124.1-0.6,124.1-0.6,250.7-1.3c11.8-3.1,11.8-3.1,23.8-6.3c4.4-0.8,8.6-1.6,13-2.2c1-0.1,2.1-0.3,3.2-0.4c3-0.4,5.9-0.8,8.9-1.1
			c1.4-0.2,2.8-0.3,4.2-0.5C326.1,2452,362.9,2454.2,395.1,2464.5z"/>
		<path class="st2" d="M925.1,2467c347.9,0,695.7,0,1054.2,0c-1,6.1-2.4,11-4.7,16.6c-0.4,0.9-0.7,1.8-1.1,2.7
			c-0.8,1.9-1.5,3.9-2.3,5.8c-1.7,4.2-3.4,8.5-5.1,12.7c-0.9,2.3-1.8,4.5-2.7,6.8c-5.2,13-10.3,26.1-15.4,39.1
			c-1,2.4-1.9,4.9-2.9,7.3c-9.5,24.4-19,48.7-28.5,73.1c-3.3,8.4-6.6,16.9-9.9,25.3c-0.4,1.1-0.8,2.1-1.2,3.2
			c-7.2,18.5-14.4,36.9-21.7,55.4c-6.7,17.1-13.4,34.2-20,51.3c-0.4,1.1-0.8,2.1-1.2,3.2c-2.9,7.4-5.8,14.7-8.6,22.1
			c-3.3,8.4-6.6,16.9-9.9,25.3c-0.4,1.1-0.8,2.1-1.2,3.2c-6.3,16-12.5,32.1-18.8,48.1c-7.8,19.9-15.6,39.8-23.4,59.7
			c-0.4,1.1-0.8,2.1-1.3,3.2c-4.1,10.4-8.1,20.9-12.1,31.3c-0.6,1.5-1.2,3.1-1.8,4.7c-1.1,2.8-2.1,5.6-3.2,8.4
			c-0.5,1.2-0.9,2.4-1.4,3.6c-0.4,1-0.8,2.1-1.2,3.1c-1,2.3-1,2.3-2.2,3.6c-3.4,0.1-6.9,0.2-10.3,0.2c-1.6,0-1.6,0-3.3,0
			c-3.7,0-7.5,0-11.2,0c-2.7,0-5.4,0-8.1,0c-7.4,0-14.8,0-22.2,0c-8,0-16,0-23.9,0c-13.8,0-27.7,0-41.5,0c-14.5,0-29,0-43.6,0
			c-0.9,0-1.8,0-2.7,0c-4.6,0-9.2,0-13.7,0c-32.5,0-64.9,0-97.4,0c-31.5,0-63.1,0-94.6,0c-1,0-1.9,0-2.9,0c-9.8,0-19.5,0-29.3,0
			c-19.9,0-39.8,0-59.6,0c-0.9,0-1.8,0-2.8,0c-61.1,0-122.2,0-183.2-0.1c-0.3-0.7-0.6-1.5-0.9-2.2c-3-7.7-6-15.4-8.9-23
			c-1.1-2.9-2.2-5.7-3.3-8.6c-7.3-18.9-14.7-37.8-22.1-56.6c-2.6-6.5-5.1-13.1-7.7-19.7c-0.5-1.3-1-2.6-1.5-3.9
			c-4.9-12.5-9.8-24.9-14.6-37.4c-7-18-14.1-36.1-21.2-54.1c-7.2-18.3-14.3-36.6-21.5-54.9c-0.6-1.6-0.6-1.6-1.2-3.2
			c-3.3-8.4-6.6-16.8-9.9-25.3c-2.9-7.4-5.8-14.8-8.6-22.2c-0.4-1.1-0.8-2.1-1.2-3.2c-6.7-17.2-13.5-34.5-20.2-51.7
			c-7.2-18.3-14.3-36.6-21.5-54.9c-0.4-1-0.8-2.1-1.2-3.1c-4.2-10.9-8.5-21.7-12.7-32.6c-1.8-4.6-3.6-9.3-5.4-13.9
			c-0.9-2.2-1.7-4.4-2.6-6.6c-1.2-3.1-2.4-6.1-3.6-9.2c-0.4-1-0.7-1.9-1.1-2.9c-1.8-4.7-3.7-9.3-5.5-13.9c-0.4-0.9-0.7-1.7-1.1-2.6
			c-1-2.4-1.9-4.7-2.9-7.1C925.1,2469.5,925.1,2469.5,925.1,2467z"/>
		<path class="st2" d="M1979.2,2467c63.6-0.1,127.2-0.1,190.8-0.2c0.9,0,1.9,0,2.9,0c20.5,0,41,0,61.5,0c10.1,0,20.1,0,30.2,0
			c1,0,2,0,3,0c32.4,0,64.7,0,97.1-0.1c33.3,0,66.6-0.1,99.9-0.1c4.7,0,9.4,0,14.1,0c1.4,0,1.4,0,2.8,0c14.9,0,29.7,0,44.6,0
			c15,0,30,0,44.9,0c8.1,0,16.2,0,24.3,0c7.4,0,14.9,0,22.3,0c2.7,0,5.3,0,8,0c24.9-0.1,50.1,1.7,74.3,8c0.8,0.2,1.6,0.4,2.4,0.6
			c27.3,7,50.2,19.6,70.3,39.5c1.1,1.1,2.2,2.2,3.3,3.3c28.6,29.8,38.6,73.3,38.4,113.6c-0.9,37-9.8,75-34.2,103.7
			c-0.9,1.1-1.7,2.1-2.6,3.2c-16,18.9-37.1,31.1-60.1,39.4c-1.5,0.6-3,1.1-4.6,1.7c-24.4,8.3-50.6,11.1-76.3,11c-1.5,0-3,0-4.6,0
			c-4.9,0-9.7,0-14.6,0c-3,0-6,0-9.1,0c-11.1,0-22.3,0-33.4,0c-24.9,0-49.8-0.1-75.5-0.1c0,64.5,0,129.1,0,195.5
			c-238.3,0-476.5,0-722,0c8.6-24.5,8.6-24.5,12.9-35.3c0.5-1.2,1-2.5,1.5-3.7c1.6-4,3.1-7.9,4.7-11.9c1.1-2.8,2.2-5.6,3.3-8.5
			c2.3-5.8,4.5-11.6,6.8-17.3c5-12.7,10-25.4,14.9-38c0.9-2.4,1.9-4.8,2.8-7.2c9.4-24.1,18.8-48.2,28.2-72.3
			c3.3-8.4,6.6-16.9,9.9-25.3c0.4-1.1,0.8-2.1,1.2-3.2c7.2-18.5,14.4-36.9,21.7-55.4c6.7-17.1,13.4-34.2,20-51.3
			c0.4-1.1,0.8-2.1,1.2-3.2c2.9-7.4,5.8-14.7,8.6-22.1c3.3-8.4,6.6-16.9,9.9-25.3c0.4-1.1,0.8-2.1,1.2-3.2
			c6.3-16,12.5-32.1,18.8-48.1c7.6-19.4,15.2-38.7,22.7-58.1c0.9-2.3,1.8-4.5,2.7-6.8c1.2-3.1,2.4-6.2,3.7-9.4
			c0.4-0.9,0.7-1.8,1.1-2.8C1976.7,2474.1,1978,2470.6,1979.2,2467z"/>
		<path class="st4" d="M2651.1,2467c147.7,0,295.3,0,447.5,0c-8,21.2-16.1,42.4-24.4,63.5c-2.2,5.5-4.3,11-6.5,16.4
			c-1.1,2.8-2.2,5.6-3.3,8.4c-5,12.8-10,25.6-15.1,38.5c-0.8,2.1-1.6,4.2-2.5,6.3c-1.6,4.1-3.2,8.3-4.8,12.4
			c-4.1,10.5-8.2,21-12.3,31.5c-0.4,1.1-0.8,2.1-1.2,3.2c-7.2,18.5-14.4,36.9-21.7,55.4c-6.7,17.1-13.4,34.2-20,51.3
			c-0.4,1.1-0.8,2.1-1.2,3.2c-2.9,7.4-5.8,14.7-8.6,22.1c-3.3,8.4-6.6,16.9-9.9,25.3c-0.4,1.1-0.8,2.1-1.2,3.2
			c-6.7,17.2-13.5,34.5-20.2,51.7c-6.8,17.4-13.6,34.7-20.4,52.1c-0.8,2.1-1.7,4.2-2.5,6.4c-4.5,11.6-9.1,23.3-13.6,34.9
			c-1.2,3.2-2.4,6.3-3.7,9.5c-1.2,3-2.3,6-3.4,8.9c-0.7,1.8-1.4,3.6-2.1,5.4c-0.3,0.8-0.6,1.6-1,2.5c-2.2,5.6-2.2,5.6-3.6,7
			c-2.1,0.1-4.2,0.2-6.3,0.2c-1.4,0-2.8,0-4.2,0c-1.5,0-3.1,0-4.7,0c-1.6,0-3.2,0-4.9,0c-4.5,0-9,0-13.5,0c-4.9,0-9.7,0-14.6,0
			c-8.4,0-16.9,0-25.3,0c-12.2,0-24.4,0-36.5,0c-19.8,0-39.5,0-59.3,0c-19.2,0-38.4,0-57.6,0c-1.8,0-1.8,0-3.6,0c-9.3,0-18.7,0-28,0
			c-45.8,0-91.7,0-137.5-0.1c0-64.5,0-129.1,0-195.5c74.4-0.4,74.4-0.4,97.7-0.5c7,0,7,0,14.1-0.1c3.1,0,6.2,0,9.2,0
			c49.8-0.1,102.5-5.1,142.2-38.2c1.2-0.9,2.3-1.9,3.5-2.8c30.9-26.3,42.9-66.1,46.4-105.3c0.6-8.3,0.7-16.4,0.3-24.7
			c-0.1-1.4-0.1-1.4-0.2-2.8c-2.6-39.5-15.5-75.5-43.7-103.8c-1-1-2-2-3-3c-30.7-29.4-74.2-36.9-114.8-40.8
			C2651.1,2467.9,2651.1,2467.4,2651.1,2467z"/>
		<path class="st2" d="M3105.3,2466.9c1,0,1.9,0,2.9,0c1.5,0,1.5,0,3.1,0c3.4,0,6.7,0,10.1,0c2.3,0,4.7,0,7,0c6.1,0,12.3,0,18.4,0
			c6.3,0,12.5,0,18.8,0c12.3,0,24.6,0,36.9,0.1c0.6,1.4,1.1,2.9,1.7,4.3c9.9,25.3,19.7,50.6,29.6,75.9c7.5,19.2,15,38.4,22.5,57.7
			c6.7,17.1,13.4,34.3,20.1,51.4c7.2,18.3,14.3,36.6,21.5,54.9c0.4,1.1,0.8,2.1,1.2,3.2c3.3,8.4,6.6,16.8,9.9,25.3
			c2.9,7.4,5.8,14.8,8.6,22.2c0.4,1.1,0.8,2.1,1.2,3.2c6.7,17.2,13.5,34.5,20.2,51.7c7.2,18.3,14.3,36.6,21.5,54.9
			c0.4,1,0.8,2.1,1.2,3.2c4.2,10.7,8.4,21.4,12.5,32.2c1.7,4.5,3.5,8.9,5.2,13.4c1.3,3.2,2.5,6.5,3.8,9.7
			c3.8,9.7,7.6,19.5,11.4,29.2c0.7,1.7,1.3,3.3,2,5c1.2,3,2.4,6.1,3.6,9.1c0.8,2,0.8,2,1.6,4c0.7,1.7,0.7,1.7,1.4,3.4
			c0.9,2.7,0.9,2.7,0.9,5.2c-167.9,0-335.9,0-508.9,0c8.6-24.4,8.6-24.4,12.2-33.4c0.4-1,0.8-2.1,1.2-3.1c0.9-2.2,1.7-4.4,2.6-6.5
			c2.4-5.9,4.7-11.8,7-17.7c0.5-1.2,1-2.4,1.5-3.7c4.8-12.2,9.6-24.4,14.4-36.7c0.4-1.1,0.8-2.1,1.2-3.2c2.1-5.3,4.2-10.7,6.2-16
			c4.1-10.6,8.2-21.1,12.3-31.7c0.4-1.1,0.8-2.1,1.2-3.2c7.2-18.5,14.4-36.9,21.7-55.4c6.7-17.1,13.4-34.2,20-51.3
			c0.4-1.1,0.8-2.1,1.2-3.2c2.9-7.4,5.8-14.7,8.6-22.1c3.3-8.4,6.6-16.9,9.9-25.3c0.4-1.1,0.8-2.1,1.2-3.2
			c7.2-18.5,14.4-36.9,21.7-55.4c6.7-17.1,13.4-34.2,20-51.3c0.4-1,0.8-2.1,1.2-3.1c4.2-10.9,8.5-21.7,12.7-32.6
			c1.8-4.6,3.6-9.3,5.4-13.9c0.9-2.2,1.7-4.4,2.6-6.6c2.7-6.8,5.3-13.6,8-20.4c0.5-1.4,0.5-1.4,1.1-2.8c1-2.7,2.1-5.3,3.2-8
			c0.6-1.5,1.2-3,1.8-4.6C3098.2,2466.2,3099.6,2466.9,3105.3,2466.9z"/>
		<path class="st2" d="M821,2467c34.3,0,68.7,0,104,0c8,19.7,16.1,39.5,23.7,59.3c2.5,6.6,5.1,13.2,7.7,19.8c0.8,2,0.8,2,1.6,4.1
			c5.4,13.8,10.8,27.7,16.2,41.5c0.9,2.4,1.9,4.8,2.8,7.2c1.4,3.6,2.8,7.1,4.2,10.7c4.7,12,9.4,24,14.1,36
			c7.1,18.2,14.2,36.4,21.3,54.5c7.2,18.3,14.3,36.6,21.5,54.9c0.4,1.1,0.8,2.1,1.2,3.2c3.3,8.4,6.6,16.8,9.9,25.3
			c2.9,7.4,5.8,14.8,8.6,22.2c0.4,1.1,0.8,2.1,1.2,3.2c7.2,18.5,14.4,36.9,21.7,55.4c5.1,12.9,10.1,25.9,15.2,38.8
			c0.4,1.1,0.9,2.2,1.3,3.3c2.1,5.4,4.2,10.7,6.3,16.1c4,10.2,8,20.4,12,30.6c0.8,1.9,1.5,3.9,2.3,5.8c1.4,3.6,2.9,7.2,4.3,10.8
			c0.6,1.6,1.3,3.2,1.9,4.8c0.6,1.4,1.1,2.8,1.7,4.2c1.2,3.4,1.2,3.4,1.2,7.2c-167.5,0-335,0-507.6,0c1.1-5.4,2.6-10.2,4.6-15.3
			c0.5-1.4,0.5-1.4,1.1-2.7c1.2-3,2.3-6,3.5-9c0.8-2.2,1.7-4.3,2.5-6.5c9.5-24.6,19.2-49.2,28.9-73.8c5-12.7,10-25.4,14.9-38.2
			c0.4-1,0.8-2.1,1.2-3.2c2-5.2,4-10.4,6.1-15.6c4.1-10.5,8.2-21,12.3-31.5c0.4-1.1,0.8-2.1,1.2-3.2c7.2-18.5,14.4-36.9,21.7-55.4
			c6.7-17.1,13.4-34.2,20-51.3c0.4-1.1,0.8-2.1,1.2-3.2c2.9-7.4,5.8-14.7,8.6-22.1c3.3-8.4,6.6-16.9,9.9-25.3
			c0.4-1.1,0.8-2.1,1.2-3.2c7.7-19.7,15.4-39.3,23.1-59c4.7-11.9,9.3-23.8,13.9-35.7c0.9-2.3,1.8-4.6,2.7-6.9
			c1.6-4.2,3.3-8.4,4.9-12.7C808.7,2497.2,814.9,2482.1,821,2467z"/>
		<path class="st2" d="M2399.1,2467c272.1,0,272.1,0,300.8,7.5c1.2,0.3,1.2,0.3,2.4,0.6c27.3,7,50.2,19.6,70.3,39.5
			c1.1,1.1,2.2,2.2,3.3,3.3c28.6,29.8,38.6,73.3,38.4,113.6c-0.9,37-9.8,75-34.2,103.7c-0.9,1.1-1.7,2.1-2.6,3.2
			c-16,18.9-37.1,31.1-60.1,39.4c-1.5,0.6-3,1.1-4.6,1.7c-24.4,8.3-50.6,11.1-76.3,11c-1.5,0-3,0-4.6,0c-4.9,0-9.7,0-14.6,0
			c-3,0-6,0-9.1,0c-11.1,0-22.3,0-33.4,0c-24.9,0-49.8-0.1-75.5-0.1c0,64.5,0,129.1,0,195.5c-33.1,0-66.2,0-100.3,0
			C2399.1,2814.7,2399.1,2643.5,2399.1,2467z"/>
		<path class="st4" d="M402.4,2467c138.2,0,276.3,0,418.7,0c-4.2,12.7-4.2,12.7-6,17.2c-0.4,1-0.8,2.1-1.2,3.1
			c-0.6,1.6-0.6,1.6-1.3,3.3c-0.5,1.2-0.9,2.3-1.4,3.6c-1.5,3.9-3,7.7-4.5,11.6c-1.1,2.7-2.1,5.5-3.2,8.2
			c-9.1,23.5-18.3,47-27.6,70.5c-6,15.2-11.9,30.5-17.9,45.7c-0.4,1-0.8,2.1-1.2,3.2c-2,5.2-4,10.4-6.1,15.6
			c-4.1,10.5-8.2,21-12.3,31.5c-0.4,1.1-0.8,2.1-1.2,3.2c-7.2,18.5-14.4,36.9-21.7,55.4c-6.7,17.1-13.4,34.2-20,51.3
			c-0.4,1.1-0.8,2.1-1.2,3.2c-2.9,7.4-5.8,14.7-8.6,22.1c-3.3,8.4-6.6,16.9-9.9,25.3c-0.4,1.1-0.8,2.1-1.2,3.2
			c-6.7,17.2-13.5,34.5-20.2,51.7c-7.1,18-14.1,36.1-21.2,54.1c-0.9,2.2-1.7,4.5-2.6,6.7c-1.2,3.1-2.4,6.2-3.6,9.2
			c-0.3,0.9-0.7,1.8-1.1,2.7c-2.3,5.8-4.5,11.7-6.7,17.5c-67,0-134,0-203.1,0c3.1-2.1,5.4-3.3,8.9-4.5
			c42.9-16.4,78.3-41.1,98.1-83.8c15-34.3,17.6-75.6,4.6-110.9c-6.5-16.4-14.6-30.7-26.3-43.9c-0.6-0.8-1.2-1.5-1.8-2.3
			c-16.3-21.1-44.7-35-69.9-41.8c-2.6-0.7-5.2-1.4-7.7-2.2c-12.3-3.5-24.7-6.7-37.2-9.8c-0.8-0.2-1.7-0.4-2.6-0.6
			c-7-1.8-14.1-3.5-21.1-5.2c-6.1-1.5-12.2-3-18.3-4.5c-0.8-0.2-1.7-0.4-2.6-0.6c-12.9-3.2-25.8-6.6-38.6-10.2
			c-5.2-1.4-10.4-2.8-15.7-4.1c-9.8-2.4-18.9-5.3-27.8-10.1c-1-0.5-2.1-1.1-3.2-1.6c-14.7-8.1-24.2-19.3-29.5-35
			c-1.3-5.4-1.6-10.2-1.5-15.7c0-1,0-2,0-3c0.3-15.8,5.9-27,17.2-38.1c25.5-21.8,63-22.6,94.7-20.3c27.2,2.9,50.5,12.5,68.6,33.6
			c11.8,16,16.7,35.5,16.7,55.1c33.5,0,67,0,101.5,0c-3.2-28.1-6.4-51.7-18.8-76.5c-0.4-0.8-0.8-1.5-1.2-2.3
			c-6.1-11.9-13.7-21.8-22.7-31.5c-1-1.1-2-2.2-3.1-3.4c-18.8-19.8-43.3-32-68.4-41.8c-2.1-0.8-4.2-1.7-6.3-2.5
			C402.4,2467.9,402.4,2467.4,402.4,2467z"/>
		<path class="st4" d="M-11.3,2467c81.9,0,163.8,0,248.2,0c-3,2-5.3,3.3-8.6,4.5c-20.4,8.2-38.3,17.8-55.3,31.8c-1,0.8-2,1.6-3,2.4
			c-26.3,21.8-40.8,55.1-44.3,88.5c-1.5,16.9-0.3,33,3.5,49.4c0.3,1.5,0.6,3,1,4.5c4.3,17.4,13.2,33.8,25.4,46.9
			c1,1.1,2.1,2.3,3.1,3.4c27.2,28.5,64.1,40.1,101.2,49.5c2.7,0.7,5.5,1.4,8.2,2.1c12.3,3.2,24.7,6.3,37.1,9.4
			c24.2,6.1,48.4,12.2,72.4,19.4c0.9,0.3,1.8,0.5,2.8,0.8c18.6,5.5,38.7,12.9,48.5,30.8c8.3,16.4,10.3,34.8,5,52.6
			c-8,20.2-21.1,33.8-40.8,42.9c-15.6,6.4-32.5,9.9-49.3,10c-0.9,0-1.9,0-2.8,0c-38.8,0.3-77.6-2.6-107.6-30.4
			c-17.5-17.3-26.1-38.4-28.8-62.7c0-5.4,0-10.8,0-16.3c-32.7,0-65.4,0-99,0c1,21.3,1,21.3,3.9,42.1c0.4,2.1,0.4,2.1,0.8,4.3
			c2.6,12.7,6.3,24.5,11.5,36.3c0.4,0.9,0.8,1.8,1.2,2.7c18.5,41.2,53.5,71.1,95.4,87.3c5,1.9,10,3.6,15,5.3c0,0.4,0,0.8,0,1.3
			c-80.7,0-161.3,0-244.4,0C-11.3,2814.7-11.3,2643.5-11.3,2467z"/>
		<path class="st4" d="M2084.5,2467c103.8,0,207.6,0,314.6,0c0,171.2,0,342.5,0,518.9c-37.2,0-74.5,0-112.8,0
			c-8-19.7-16.1-39.5-23.7-59.3c-2.5-6.6-5.1-13.2-7.7-19.8c-0.5-1.3-1-2.7-1.6-4.1c-5.3-13.7-10.7-27.4-16-41.1
			c-0.5-1.2-0.9-2.4-1.4-3.6c-2.3-5.9-4.7-11.9-7-17.8c-4.8-12.1-9.5-24.3-14.2-36.4c-0.5-1.2-0.9-2.4-1.4-3.6
			c-10.3-26.4-20.7-52.9-31-79.3c-2.9-7.4-5.8-14.8-8.6-22.2c-0.4-1.1-0.8-2.1-1.2-3.2c-6.7-17.2-13.5-34.5-20.2-51.7
			c-7.2-18.3-14.3-36.6-21.5-54.9c-0.4-1-0.8-2.1-1.2-3.2c-4.2-10.7-8.3-21.3-12.5-32c-1.7-4.4-3.4-8.8-5.1-13.2
			c-1.3-3.2-2.5-6.4-3.8-9.7c-4-10.3-8.1-20.7-12.2-31c-0.8-1.9-1.5-3.9-2.3-5.8c-1.4-3.6-2.9-7.2-4.3-10.8
			c-0.6-1.6-1.3-3.2-1.9-4.8c-0.6-1.4-1.1-2.8-1.7-4.2C2084.5,2470.8,2084.5,2470.8,2084.5,2467z"/>
		<path class="st4" d="M1665.9,2467c103.4,0,206.8,0,313.4,0c-1,6.1-2.4,11-4.7,16.6c-0.5,1.3-0.5,1.3-1.1,2.7
			c-0.8,1.9-1.5,3.9-2.3,5.8c-1.7,4.2-3.4,8.5-5.1,12.7c-0.9,2.3-1.8,4.5-2.7,6.8c-5.2,13-10.3,26.1-15.4,39.1
			c-1,2.4-1.9,4.9-2.9,7.3c-9.5,24.4-19,48.7-28.5,73.1c-3.3,8.4-6.6,16.9-9.9,25.3c-0.4,1.1-0.8,2.1-1.2,3.2
			c-7.2,18.5-14.4,36.9-21.7,55.4c-6.7,17.1-13.4,34.2-20,51.3c-0.4,1.1-0.8,2.1-1.2,3.2c-2.9,7.4-5.8,14.7-8.6,22.1
			c-3.3,8.4-6.6,16.9-9.9,25.3c-0.4,1.1-0.8,2.1-1.2,3.2c-6.3,16-12.5,32.1-18.8,48.1c-7.8,19.9-15.6,39.8-23.4,59.7
			c-0.4,1.1-0.8,2.1-1.3,3.2c-4.1,10.4-8.1,20.9-12.1,31.3c-0.6,1.5-1.2,3.1-1.8,4.7c-1.1,2.8-2.1,5.6-3.2,8.4
			c-0.5,1.2-0.9,2.4-1.4,3.6c-0.4,1-0.8,2.1-1.2,3.1c-1,2.3-1,2.3-2.2,3.6c-36.8,0-73.6,0-111.6,0
			C1665.9,2814.7,1665.9,2643.5,1665.9,2467z"/>
		<path class="st4" d="M925.1,2467c103.4,0,206.8,0,313.4,0c0,171.2,0,342.5,0,518.9c-36.8,0-73.6,0-111.6,0
			c-3.4-8.8-6.8-17.6-10.3-26.7c-9.7-25.2-19.6-50.3-29.4-75.4c-1-2.7-2.1-5.3-3.1-8c-0.5-1.3-1-2.6-1.5-3.9
			c-4.9-12.5-9.8-24.9-14.6-37.4c-7-18-14.1-36.1-21.2-54.1c-7.2-18.3-14.3-36.6-21.5-54.9c-0.6-1.6-0.6-1.6-1.2-3.2
			c-3.3-8.4-6.6-16.8-9.9-25.3c-2.9-7.4-5.8-14.8-8.6-22.2c-0.4-1.1-0.8-2.1-1.2-3.2c-6.7-17.2-13.5-34.5-20.2-51.7
			c-7.2-18.3-14.3-36.6-21.5-54.9c-0.4-1-0.8-2.1-1.2-3.1c-4.2-10.9-8.5-21.7-12.7-32.6c-1.8-4.6-3.6-9.3-5.4-13.9
			c-0.9-2.2-1.7-4.4-2.6-6.6c-1.2-3.1-2.4-6.1-3.6-9.2c-0.4-1-0.7-1.9-1.1-2.9c-1.8-4.7-3.7-9.3-5.5-13.9c-0.4-0.9-0.7-1.7-1.1-2.6
			c-1-2.4-1.9-4.7-2.9-7.1C925.1,2469.5,925.1,2469.5,925.1,2467z"/>
		<path class="st4" d="M3202.6,2467c103,0,206,0,312.1,0c0,171.2,0,342.5,0,518.9c-36.4,0-72.8,0-110.3,0
			c-15.7-38.4-15.7-38.4-21.6-54c-2-5.2-3.9-10.3-5.9-15.4c-0.6-1.6-0.6-1.6-1.3-3.3c-4.9-12.8-9.9-25.6-14.9-38.3
			c-0.7-1.8-0.7-1.8-1.4-3.6c-2.4-6.1-4.8-12.2-7.2-18.4c-4.8-12.2-9.6-24.4-14.3-36.6c-0.5-1.2-0.9-2.4-1.4-3.6
			c-10.3-26.4-20.7-52.9-31-79.4c-2.9-7.4-5.8-14.8-8.6-22.2c-0.4-1.1-0.8-2.1-1.2-3.2c-7.2-18.5-14.4-36.9-21.7-55.4
			c-6.2-15.9-12.4-31.8-18.6-47.7c-7.1-18.1-14.1-36.2-21.2-54.2c-1-2.4-1.9-4.9-2.9-7.3c-5.1-13-10.2-26.1-15.4-39.1
			c-0.9-2.2-1.8-4.5-2.7-6.7c-1.7-4.2-3.3-8.3-5-12.5c-0.7-1.9-1.5-3.7-2.2-5.6c-0.3-0.8-0.7-1.7-1-2.5
			C3203.5,2473.5,3202.6,2470.9,3202.6,2467z"/>
		<path class="st4" d="M3943.4,2467c42.2,0,84.4,0,127.9,0c0,171.2,0,342.5,0,518.9c-42.2,0-84.4,0-127.9,0
			C3943.4,2814.7,3943.4,2643.5,3943.4,2467z"/>
		<path class="st4" d="M1338.7,2755.3c74.9,0,149.7,0,226.9,0c0,76.1,0,152.2,0,230.6c-74.9,0-149.7,0-226.9,0
			C1338.7,2909.8,1338.7,2833.7,1338.7,2755.3z"/>
		<path class="st4" d="M1338.7,2467c74.9,0,149.7,0,226.9,0c0,67,0,134,0,203.1c-74.9,0-149.7,0-226.9,0
			C1338.7,2603.1,1338.7,2536.1,1338.7,2467z"/>
		<path class="st4" d="M3557.3,2467c96,0,191.9,0,290.8,0c0,121.6,0,243.2,0,368.5c-3.7-3.7-5.9-6.1-8.5-10.4
			c-0.6-1-1.3-2.1-1.9-3.2c-0.7-1.1-1.4-2.2-2.1-3.4c-1.5-2.4-2.9-4.8-4.4-7.2c-0.7-1.2-1.5-2.4-2.2-3.6c-3.2-5.2-6.5-10.4-9.8-15.6
			c-0.6-1-1.2-1.9-1.9-2.9c-1.2-2-2.5-3.9-3.7-5.9c-3.1-4.9-6.3-9.9-9.4-14.8c-3.7-5.9-7.4-11.8-11.1-17.6
			c-7.8-12.3-15.5-24.6-23.2-37c-6.7-10.7-13.4-21.4-20.2-32.1c-3.1-4.9-6.2-9.9-9.3-14.8c-1.3-2-2.5-4-3.8-6c-2.5-4-5-7.9-7.5-11.9
			c-0.6-1-1.2-2-1.9-3c-1.3-2-2.5-4-3.8-6c-3.1-4.9-6.2-9.8-9.3-14.7c-7.8-12.3-15.5-24.6-23.2-37c-6.7-10.7-13.4-21.4-20.2-32.1
			c-3.7-5.9-7.5-11.8-11.2-17.8c-3.1-4.9-6.2-9.8-9.3-14.6c-7.2-11.4-14.4-22.8-21.5-34.2c-1.2-1.9-1.2-1.9-2.4-3.9
			c-0.8-1.2-1.5-2.4-2.3-3.7c-0.7-1.1-1.3-2.2-2-3.3c-1.9-3.1-1.9-3.1-3.2-6.6c-3-3.4-3.9-3.3-8.3-3.6c-2.5-0.1-4.9-0.1-7.4-0.1
			c-1.3,0-2.6,0-3.9-0.1c-4.2-0.1-8.3-0.1-12.5-0.1c-2.8,0-5.6-0.1-8.5-0.1c-6.9-0.1-13.8-0.1-20.8-0.1
			C3557.3,2467.9,3557.3,2467.4,3557.3,2467z"/>
		<path class="st4" d="M3610,2619.9c3.2,4.1,6.1,7.7,8.8,12.1c0.7,1.1,1.4,2.2,2.1,3.3c0.7,1.2,1.5,2.3,2.2,3.5
			c1.2,1.8,1.2,1.8,2.3,3.7c2.4,3.7,4.7,7.5,7.1,11.2c1.3,2.1,2.6,4.2,4,6.3c3.1,4.9,6.2,9.8,9.2,14.6c3.1,4.9,6.2,9.9,9.4,14.8
			c1.3,2,2.5,4,3.8,6c0.6,1,1.2,2,1.9,3c47,74.4,94,148.8,141,223.3c0.6,1,1.2,2,1.9,3c1.3,2,2.5,4,3.8,5.9c3.2,5,6.3,10,9.5,15
			c0.6,1,1.3,2,1.9,3c1.3,2,2.5,4,3.8,6c3.1,4.8,5.9,9.5,8.5,14.6c4.3,9.2,4.3,9.2,12,15.1c5.9,1.2,11.6,0.9,17.6,0.3
			c0,0.4,0,0.8,0,1.3c-82.7,0-165.5,0-250.7,0C3610,2865.2,3610,2744.4,3610,2619.9z"/>
		<path class="st4" d="M3048.4,2850.6c66.2,0,132.4,0,200.6,0c5.6,14.1,5.6,14.1,7.6,19.6c0.4,1.2,0.9,2.5,1.3,3.8
			c0.5,1.3,0.9,2.6,1.4,4c0.5,1.4,1,2.8,1.5,4.3c1.6,4.6,3.2,9.1,4.9,13.7c2,5.5,3.9,11,5.9,16.6c0.6,1.6,1.1,3.2,1.7,4.8
			c3.7,10.5,7.5,20.9,11.3,31.4c0.8,2.3,1.7,4.6,2.5,6.8c1.1,3.2,2.3,6.3,3.5,9.5c1,2.9,2.1,5.7,3.1,8.6c0.3,0.8,0.6,1.7,0.9,2.5
			c1.3,3.5,2,6.1,2,9.8c-97.6,0-195.2,0-295.8,0c4.2-14.1,4.2-14.1,6.5-20.4c0.7-2.1,0.7-2.1,1.5-4.3c0.8-2.2,0.8-2.2,1.6-4.5
			c0.6-1.6,1.1-3.2,1.7-4.8c1.2-3.4,2.4-6.8,3.6-10.2c1.8-5,3.6-10,5.4-15.1C3030.1,2901.3,3039.3,2875.9,3048.4,2850.6z"/>
		<path class="st4" d="M1930.4,2850.6c66.2,0,132.4,0,200.6,0c10.1,25.9,10.1,25.9,14.3,38.1c0.5,1.4,1,2.7,1.4,4.1
			c1.5,4.3,3,8.7,4.5,13c2.1,6,4.2,12,6.3,18c0.5,1.5,1,2.9,1.6,4.4c3.1,8.7,6.2,17.4,9.3,26.1c0.4,1,0.7,2,1.1,3
			c1.6,4.4,3.3,8.9,4.9,13.3c0.6,1.5,1.1,3,1.7,4.6c0.5,1.3,1,2.6,1.5,3.9c1,3.1,1,3.1,1,6.9c-97.6,0-195.2,0-295.8,0
			c4.2-14.1,4.2-14.1,5.9-18.9c0.6-1.6,0.6-1.6,1.2-3.3c0.4-1.1,0.8-2.3,1.2-3.5c0.4-1.3,0.9-2.5,1.3-3.8c0.9-2.7,1.9-5.4,2.9-8.1
			c1.4-3.9,2.7-7.7,4.1-11.6C1909.5,2908,1920,2879.3,1930.4,2850.6z"/>
		<path class="st4" d="M775.4,2850.4c2.2,0,2.2,0,4.5,0c0.8,0,1.6,0,2.5,0c2.8,0,5.5,0,8.3,0c2,0,4,0,5.9,0c5.4,0,10.8,0,16.1,0
			c5.6,0,11.2,0,16.9,0c10.6,0,21.3,0,31.9,0c12.1,0,24.2,0,36.3,0c24.9,0,49.9,0,74.8,0.1c0.3,0.8,0.5,1.5,0.8,2.3
			c18.1,51.4,18.1,51.4,36.4,102.7c1.5,4.3,3.1,8.5,4.6,12.8c0.9,2.6,1.9,5.1,2.8,7.7c0.4,1.1,0.8,2.2,1.2,3.4
			c0.4,1,0.7,1.9,1.1,2.9c0.7,2.2,0.7,2.2,0.7,3.5c-98,0-196.1,0-297.1,0c8-23.3,16.2-46.6,24.5-69.9c1-2.8,2-5.5,3-8.3
			c2-5.5,3.9-10.9,5.9-16.4c2.1-5.7,4.1-11.5,6.2-17.2c0.8-2.2,0.8-2.2,1.6-4.4c1-2.8,2-5.6,3-8.4c0.4-1.2,0.9-2.5,1.3-3.8
			c0.4-1.1,0.8-2.2,1.2-3.3C771.4,2850.7,771.4,2850.6,775.4,2850.4z"/>
		<path class="st5" d="M2499.4,2548.5c22.3-0.1,44.6-0.1,67.6-0.2c7,0,14,0,21.2-0.1c8.7,0,8.7,0,12.7,0c2.8,0,5.6,0,8.4,0
			c61.4-0.3,61.4-0.3,84.6,20.3c16.8,17.3,20.4,39.1,20.3,62.2c-0.5,20.4-5.7,38.9-20,54.1c-25.7,23.1-58.4,24.7-91.2,24.4
			c-2.7,0-5.3,0-8,0c-9.8,0-19.6-0.1-29.3-0.1c-32.8-0.1-32.8-0.1-66.4-0.2C2499.4,2656,2499.4,2603,2499.4,2548.5z"/>
		<path class="st4" d="M2030.6,2572.3c2.4,3.6,3.6,6.6,5.1,10.6c0.5,1.4,1,2.8,1.5,4.3c0.5,1.6,1.1,3.1,1.6,4.7
			c0.6,1.6,1.2,3.3,1.7,4.9c1.2,3.5,2.5,7,3.7,10.5c2.9,8.4,5.9,16.7,8.8,25.1c1,2.8,2,5.7,3,8.5c6.1,17.3,12.3,34.5,18.4,51.8
			c1,2.7,1.9,5.4,2.9,8.1c4.1,11.5,8.2,22.9,12.4,34.4c1.7,4.7,3.4,9.3,5,14c1.1,3.2,2.3,6.3,3.4,9.5c0.7,1.9,1.3,3.8,2,5.6
			c0.3,0.9,0.6,1.7,0.9,2.6c2.1,5.8,2.1,5.8,2.1,7.2c-47.6,0-95.1,0-144.1,0c0.8-5,1.5-8.8,3.2-13.4c0.4-1.1,0.8-2.2,1.2-3.4
			c0.4-1.2,0.9-2.4,1.3-3.6c0.5-1.3,0.9-2.5,1.4-3.9c1.5-4.2,3.1-8.4,4.6-12.6c1.1-3,2.1-6,3.2-8.9c1.7-4.7,3.4-9.3,5-14
			c5.5-15.2,10.9-30.4,16.3-45.6c1.6-4.4,3.1-8.8,4.7-13.2c5.1-14.2,10.1-28.4,15.2-42.6c0.9-2.7,1.9-5.3,2.8-8
			c1.8-5,3.5-9.9,5.3-14.9c0.8-2.2,1.6-4.4,2.3-6.6c0.4-1,0.7-2,1.1-3C2029.2,2573.7,2029.2,2573.7,2030.6,2572.3z"/>
		<path class="st4" d="M871.2,2572.3c2.9,2.9,3.6,5,4.9,8.9c0.5,1.3,1,2.7,1.4,4.1c0.8,2.2,0.8,2.2,1.6,4.5c0.8,2.4,1.7,4.7,2.5,7.1
			c0.9,2.5,1.8,5.1,2.7,7.6c1.9,5.3,3.7,10.6,5.6,15.9c0.6,1.8,1.3,3.6,1.9,5.4c0.3,0.9,0.6,1.8,1,2.7c1,2.7,1.9,5.5,2.9,8.2
			c5.5,15.6,11,31.1,16.6,46.6c1.5,4.1,2.9,8.1,4.4,12.2c3.8,10.5,7.5,21,11.3,31.5c2.3,6.3,4.5,12.6,6.8,18.9
			c0.8,2.3,1.7,4.6,2.5,7c1.1,3.2,2.3,6.3,3.4,9.5c0.3,0.9,0.7,1.9,1,2.8c2.3,6.3,2.3,6.3,2.3,9.1c-47.6,0-95.1,0-144.1,0
			c4.2-14.1,4.2-14.1,6.3-20c0.5-1.3,1-2.7,1.4-4.1c0.5-1.4,1-2.8,1.5-4.3c0.5-1.5,1.1-3.1,1.6-4.6c1.5-4.1,2.9-8.3,4.4-12.4
			c1.2-3.5,2.5-6.9,3.7-10.4C836.1,2669.6,853.6,2620.9,871.2,2572.3z"/>
		<path class="st4" d="M3148.7,2572.3c2.3,3.5,3.6,6.3,4.9,10.3c0.5,1.3,1,2.7,1.4,4.1c0.8,2.2,0.8,2.2,1.6,4.5
			c0.8,2.4,1.7,4.7,2.5,7.1c0.9,2.5,1.8,5.1,2.7,7.6c1.9,5.3,3.7,10.6,5.6,15.8c0.3,0.9,0.6,1.8,0.9,2.7c0.6,1.8,1.3,3.6,1.9,5.4
			c1,2.7,1.9,5.5,2.9,8.2c6,16.9,12,33.8,18.1,50.7c1,2.7,1.9,5.4,2.9,8.1c1.9,5.3,3.8,10.5,5.7,15.8c4.1,11.5,8.3,23.1,12.4,34.6
			c0.8,2.3,1.7,4.7,2.5,7c1.1,3.2,2.3,6.3,3.4,9.5c0.3,0.9,0.7,1.9,1,2.8c2.3,6.3,2.3,6.3,2.3,7.7c-47.6,0-95.1,0-144.1,0
			c4.2-15.5,4.2-15.5,6.3-21.4c0.7-2,0.7-2,1.4-4.1c0.5-1.4,1-2.8,1.5-4.3c0.5-1.5,1.1-3.1,1.6-4.6c1.5-4.1,2.9-8.2,4.4-12.4
			c1.5-4.3,3.1-8.7,4.6-13c3.5-9.7,6.9-19.5,10.4-29.2c1.4-4,2.9-8,4.3-12c9.7-27.2,19.5-54.5,29.4-81.6c0.3-0.9,0.6-1.7,1-2.6
			c0.9-2.4,1.7-4.7,2.6-7.1c0.5-1.3,0.9-2.6,1.4-3.9C3147.5,2574.8,3147.5,2574.8,3148.7,2572.3z"/>
	</g>
</g>
</svg>
